G04 #@! TF.GenerationSoftware,KiCad,Pcbnew,5.1.2-1.fc30*
G04 #@! TF.CreationDate,2019-06-07T11:55:58+09:00*
G04 #@! TF.ProjectId,ltc6268_tia,6c746336-3236-4385-9f74-69612e6b6963,rev?*
G04 #@! TF.SameCoordinates,Original*
G04 #@! TF.FileFunction,Soldermask,Top*
G04 #@! TF.FilePolarity,Negative*
%FSLAX46Y46*%
G04 Gerber Fmt 4.6, Leading zero omitted, Abs format (unit mm)*
G04 Created by KiCad (PCBNEW 5.1.2-1.fc30) date 2019-06-07 11:55:58*
%MOMM*%
%LPD*%
G04 APERTURE LIST*
%ADD10C,0.800000*%
%ADD11C,0.100000*%
G04 APERTURE END LIST*
D10*
X101500000Y-44950000D02*
X101950000Y-45450000D01*
X101500000Y-42400000D02*
X101500000Y-44950000D01*
X101950000Y-41950000D02*
X101500000Y-42400000D01*
X106800000Y-41950000D02*
X101950000Y-41950000D01*
X107450000Y-42600000D02*
X106800000Y-41950000D01*
X107450000Y-45200000D02*
X107450000Y-42600000D01*
X107200000Y-45450000D02*
X107450000Y-45200000D01*
X104700000Y-45450000D02*
X107200000Y-45450000D01*
X104150000Y-44900000D02*
X104700000Y-45450000D01*
X104150000Y-44450000D02*
X104150000Y-44900000D01*
X103800000Y-44200000D02*
X104150000Y-44450000D01*
X103250000Y-44250000D02*
X103800000Y-44200000D01*
X101950000Y-45450000D02*
X103250000Y-44250000D01*
X101950000Y-46100000D02*
X101950000Y-45450000D01*
X98300000Y-61250000D02*
X98650000Y-60850000D01*
X98300000Y-61300000D02*
X98300000Y-61250000D01*
X98300000Y-62800000D02*
X98300000Y-61300000D01*
X98900000Y-63400000D02*
X98300000Y-62800000D01*
X105800000Y-63400000D02*
X98900000Y-63400000D01*
X106300000Y-62900000D02*
X105800000Y-63400000D01*
X106300000Y-61400000D02*
X106300000Y-62900000D01*
X105750000Y-60850000D02*
X106300000Y-61400000D01*
X98650000Y-60850000D02*
X105750000Y-60850000D01*
D11*
G36*
X105375256Y-73391298D02*
G01*
X105481579Y-73412447D01*
X105782042Y-73536903D01*
X106052451Y-73717585D01*
X106282415Y-73947549D01*
X106463097Y-74217958D01*
X106587553Y-74518421D01*
X106651000Y-74837391D01*
X106651000Y-75162609D01*
X106587553Y-75481579D01*
X106463097Y-75782042D01*
X106282415Y-76052451D01*
X106052451Y-76282415D01*
X105782042Y-76463097D01*
X105481579Y-76587553D01*
X105375256Y-76608702D01*
X105162611Y-76651000D01*
X104837389Y-76651000D01*
X104624744Y-76608702D01*
X104518421Y-76587553D01*
X104217958Y-76463097D01*
X103947549Y-76282415D01*
X103717585Y-76052451D01*
X103536903Y-75782042D01*
X103412447Y-75481579D01*
X103349000Y-75162609D01*
X103349000Y-74837391D01*
X103412447Y-74518421D01*
X103536903Y-74217958D01*
X103717585Y-73947549D01*
X103947549Y-73717585D01*
X104217958Y-73536903D01*
X104518421Y-73412447D01*
X104624744Y-73391298D01*
X104837389Y-73349000D01*
X105162611Y-73349000D01*
X105375256Y-73391298D01*
X105375256Y-73391298D01*
G37*
G36*
X65375256Y-73391298D02*
G01*
X65481579Y-73412447D01*
X65782042Y-73536903D01*
X66052451Y-73717585D01*
X66282415Y-73947549D01*
X66463097Y-74217958D01*
X66587553Y-74518421D01*
X66651000Y-74837391D01*
X66651000Y-75162609D01*
X66587553Y-75481579D01*
X66463097Y-75782042D01*
X66282415Y-76052451D01*
X66052451Y-76282415D01*
X65782042Y-76463097D01*
X65481579Y-76587553D01*
X65375256Y-76608702D01*
X65162611Y-76651000D01*
X64837389Y-76651000D01*
X64624744Y-76608702D01*
X64518421Y-76587553D01*
X64217958Y-76463097D01*
X63947549Y-76282415D01*
X63717585Y-76052451D01*
X63536903Y-75782042D01*
X63412447Y-75481579D01*
X63349000Y-75162609D01*
X63349000Y-74837391D01*
X63412447Y-74518421D01*
X63536903Y-74217958D01*
X63717585Y-73947549D01*
X63947549Y-73717585D01*
X64217958Y-73536903D01*
X64518421Y-73412447D01*
X64624744Y-73391298D01*
X64837389Y-73349000D01*
X65162611Y-73349000D01*
X65375256Y-73391298D01*
X65375256Y-73391298D01*
G37*
G36*
X79781938Y-70141716D02*
G01*
X79802557Y-70147971D01*
X79821553Y-70158124D01*
X79838208Y-70171792D01*
X79851876Y-70188447D01*
X79862029Y-70207443D01*
X79868284Y-70228062D01*
X79871000Y-70255640D01*
X79871000Y-70714360D01*
X79868284Y-70741938D01*
X79862029Y-70762557D01*
X79851876Y-70781553D01*
X79838208Y-70798208D01*
X79821553Y-70811876D01*
X79802557Y-70822029D01*
X79781938Y-70828284D01*
X79754360Y-70831000D01*
X79245640Y-70831000D01*
X79218062Y-70828284D01*
X79197443Y-70822029D01*
X79178447Y-70811876D01*
X79161792Y-70798208D01*
X79148124Y-70781553D01*
X79137971Y-70762557D01*
X79131716Y-70741938D01*
X79129000Y-70714360D01*
X79129000Y-70255640D01*
X79131716Y-70228062D01*
X79137971Y-70207443D01*
X79148124Y-70188447D01*
X79161792Y-70171792D01*
X79178447Y-70158124D01*
X79197443Y-70147971D01*
X79218062Y-70141716D01*
X79245640Y-70139000D01*
X79754360Y-70139000D01*
X79781938Y-70141716D01*
X79781938Y-70141716D01*
G37*
G36*
X67091000Y-70051000D02*
G01*
X61909000Y-70051000D01*
X61909000Y-68449000D01*
X67091000Y-68449000D01*
X67091000Y-70051000D01*
X67091000Y-70051000D01*
G37*
G36*
X79781938Y-69171716D02*
G01*
X79802557Y-69177971D01*
X79821553Y-69188124D01*
X79838208Y-69201792D01*
X79851876Y-69218447D01*
X79862029Y-69237443D01*
X79868284Y-69258062D01*
X79871000Y-69285640D01*
X79871000Y-69744360D01*
X79868284Y-69771938D01*
X79862029Y-69792557D01*
X79851876Y-69811553D01*
X79838208Y-69828208D01*
X79821553Y-69841876D01*
X79802557Y-69852029D01*
X79781938Y-69858284D01*
X79754360Y-69861000D01*
X79245640Y-69861000D01*
X79218062Y-69858284D01*
X79197443Y-69852029D01*
X79178447Y-69841876D01*
X79161792Y-69828208D01*
X79148124Y-69811553D01*
X79137971Y-69792557D01*
X79131716Y-69771938D01*
X79129000Y-69744360D01*
X79129000Y-69285640D01*
X79131716Y-69258062D01*
X79137971Y-69237443D01*
X79148124Y-69218447D01*
X79161792Y-69201792D01*
X79178447Y-69188124D01*
X79197443Y-69177971D01*
X79218062Y-69171716D01*
X79245640Y-69169000D01*
X79754360Y-69169000D01*
X79781938Y-69171716D01*
X79781938Y-69171716D01*
G37*
G36*
X79781938Y-67641716D02*
G01*
X79802557Y-67647971D01*
X79821553Y-67658124D01*
X79838208Y-67671792D01*
X79851876Y-67688447D01*
X79862029Y-67707443D01*
X79868284Y-67728062D01*
X79871000Y-67755640D01*
X79871000Y-68214360D01*
X79868284Y-68241938D01*
X79862029Y-68262557D01*
X79851876Y-68281553D01*
X79838208Y-68298208D01*
X79821553Y-68311876D01*
X79802557Y-68322029D01*
X79781938Y-68328284D01*
X79754360Y-68331000D01*
X79245640Y-68331000D01*
X79218062Y-68328284D01*
X79197443Y-68322029D01*
X79178447Y-68311876D01*
X79161792Y-68298208D01*
X79148124Y-68281553D01*
X79137971Y-68262557D01*
X79131716Y-68241938D01*
X79129000Y-68214360D01*
X79129000Y-67755640D01*
X79131716Y-67728062D01*
X79137971Y-67707443D01*
X79148124Y-67688447D01*
X79161792Y-67671792D01*
X79178447Y-67658124D01*
X79197443Y-67647971D01*
X79218062Y-67641716D01*
X79245640Y-67639000D01*
X79754360Y-67639000D01*
X79781938Y-67641716D01*
X79781938Y-67641716D01*
G37*
G36*
X79781938Y-66671716D02*
G01*
X79802557Y-66677971D01*
X79821553Y-66688124D01*
X79838208Y-66701792D01*
X79851876Y-66718447D01*
X79862029Y-66737443D01*
X79868284Y-66758062D01*
X79871000Y-66785640D01*
X79871000Y-67244360D01*
X79868284Y-67271938D01*
X79862029Y-67292557D01*
X79851876Y-67311553D01*
X79838208Y-67328208D01*
X79821553Y-67341876D01*
X79802557Y-67352029D01*
X79781938Y-67358284D01*
X79754360Y-67361000D01*
X79245640Y-67361000D01*
X79218062Y-67358284D01*
X79197443Y-67352029D01*
X79178447Y-67341876D01*
X79161792Y-67328208D01*
X79148124Y-67311553D01*
X79137971Y-67292557D01*
X79131716Y-67271938D01*
X79129000Y-67244360D01*
X79129000Y-66785640D01*
X79131716Y-66758062D01*
X79137971Y-66737443D01*
X79148124Y-66718447D01*
X79161792Y-66701792D01*
X79178447Y-66688124D01*
X79197443Y-66677971D01*
X79218062Y-66671716D01*
X79245640Y-66669000D01*
X79754360Y-66669000D01*
X79781938Y-66671716D01*
X79781938Y-66671716D01*
G37*
G36*
X67091000Y-65801000D02*
G01*
X61909000Y-65801000D01*
X61909000Y-64199000D01*
X67091000Y-64199000D01*
X67091000Y-65801000D01*
X67091000Y-65801000D01*
G37*
G36*
X78289499Y-64478445D02*
G01*
X78326995Y-64489820D01*
X78361554Y-64508292D01*
X78391847Y-64533153D01*
X78416708Y-64563446D01*
X78435180Y-64598005D01*
X78446555Y-64635501D01*
X78451000Y-64680638D01*
X78451000Y-65319362D01*
X78446555Y-65364499D01*
X78435180Y-65401995D01*
X78416708Y-65436554D01*
X78391847Y-65466847D01*
X78361554Y-65491708D01*
X78326995Y-65510180D01*
X78289499Y-65521555D01*
X78244362Y-65526000D01*
X77505638Y-65526000D01*
X77460501Y-65521555D01*
X77423005Y-65510180D01*
X77388446Y-65491708D01*
X77358153Y-65466847D01*
X77333292Y-65436554D01*
X77314820Y-65401995D01*
X77303445Y-65364499D01*
X77299000Y-65319362D01*
X77299000Y-64680638D01*
X77303445Y-64635501D01*
X77314820Y-64598005D01*
X77333292Y-64563446D01*
X77358153Y-64533153D01*
X77388446Y-64508292D01*
X77423005Y-64489820D01*
X77460501Y-64478445D01*
X77505638Y-64474000D01*
X78244362Y-64474000D01*
X78289499Y-64478445D01*
X78289499Y-64478445D01*
G37*
G36*
X76539499Y-64478445D02*
G01*
X76576995Y-64489820D01*
X76611554Y-64508292D01*
X76641847Y-64533153D01*
X76666708Y-64563446D01*
X76685180Y-64598005D01*
X76696555Y-64635501D01*
X76701000Y-64680638D01*
X76701000Y-65319362D01*
X76696555Y-65364499D01*
X76685180Y-65401995D01*
X76666708Y-65436554D01*
X76641847Y-65466847D01*
X76611554Y-65491708D01*
X76576995Y-65510180D01*
X76539499Y-65521555D01*
X76494362Y-65526000D01*
X75755638Y-65526000D01*
X75710501Y-65521555D01*
X75673005Y-65510180D01*
X75638446Y-65491708D01*
X75608153Y-65466847D01*
X75583292Y-65436554D01*
X75564820Y-65401995D01*
X75553445Y-65364499D01*
X75549000Y-65319362D01*
X75549000Y-64680638D01*
X75553445Y-64635501D01*
X75564820Y-64598005D01*
X75583292Y-64563446D01*
X75608153Y-64533153D01*
X75638446Y-64508292D01*
X75673005Y-64489820D01*
X75710501Y-64478445D01*
X75755638Y-64474000D01*
X76494362Y-64474000D01*
X76539499Y-64478445D01*
X76539499Y-64478445D01*
G37*
G36*
X83289499Y-64478445D02*
G01*
X83326995Y-64489820D01*
X83361554Y-64508292D01*
X83391847Y-64533153D01*
X83416708Y-64563446D01*
X83435180Y-64598005D01*
X83446555Y-64635501D01*
X83451000Y-64680638D01*
X83451000Y-65319362D01*
X83446555Y-65364499D01*
X83435180Y-65401995D01*
X83416708Y-65436554D01*
X83391847Y-65466847D01*
X83361554Y-65491708D01*
X83326995Y-65510180D01*
X83289499Y-65521555D01*
X83244362Y-65526000D01*
X82505638Y-65526000D01*
X82460501Y-65521555D01*
X82423005Y-65510180D01*
X82388446Y-65491708D01*
X82358153Y-65466847D01*
X82333292Y-65436554D01*
X82314820Y-65401995D01*
X82303445Y-65364499D01*
X82299000Y-65319362D01*
X82299000Y-64680638D01*
X82303445Y-64635501D01*
X82314820Y-64598005D01*
X82333292Y-64563446D01*
X82358153Y-64533153D01*
X82388446Y-64508292D01*
X82423005Y-64489820D01*
X82460501Y-64478445D01*
X82505638Y-64474000D01*
X83244362Y-64474000D01*
X83289499Y-64478445D01*
X83289499Y-64478445D01*
G37*
G36*
X81539499Y-64478445D02*
G01*
X81576995Y-64489820D01*
X81611554Y-64508292D01*
X81641847Y-64533153D01*
X81666708Y-64563446D01*
X81685180Y-64598005D01*
X81696555Y-64635501D01*
X81701000Y-64680638D01*
X81701000Y-65319362D01*
X81696555Y-65364499D01*
X81685180Y-65401995D01*
X81666708Y-65436554D01*
X81641847Y-65466847D01*
X81611554Y-65491708D01*
X81576995Y-65510180D01*
X81539499Y-65521555D01*
X81494362Y-65526000D01*
X80755638Y-65526000D01*
X80710501Y-65521555D01*
X80673005Y-65510180D01*
X80638446Y-65491708D01*
X80608153Y-65466847D01*
X80583292Y-65436554D01*
X80564820Y-65401995D01*
X80553445Y-65364499D01*
X80549000Y-65319362D01*
X80549000Y-64680638D01*
X80553445Y-64635501D01*
X80564820Y-64598005D01*
X80583292Y-64563446D01*
X80608153Y-64533153D01*
X80638446Y-64508292D01*
X80673005Y-64489820D01*
X80710501Y-64478445D01*
X80755638Y-64474000D01*
X81494362Y-64474000D01*
X81539499Y-64478445D01*
X81539499Y-64478445D01*
G37*
G36*
X85771938Y-64631716D02*
G01*
X85792557Y-64637971D01*
X85811553Y-64648124D01*
X85828208Y-64661792D01*
X85841876Y-64678447D01*
X85852029Y-64697443D01*
X85858284Y-64718062D01*
X85861000Y-64745640D01*
X85861000Y-65254360D01*
X85858284Y-65281938D01*
X85852029Y-65302557D01*
X85841876Y-65321553D01*
X85828208Y-65338208D01*
X85811553Y-65351876D01*
X85792557Y-65362029D01*
X85771938Y-65368284D01*
X85744360Y-65371000D01*
X85285640Y-65371000D01*
X85258062Y-65368284D01*
X85237443Y-65362029D01*
X85218447Y-65351876D01*
X85201792Y-65338208D01*
X85188124Y-65321553D01*
X85177971Y-65302557D01*
X85171716Y-65281938D01*
X85169000Y-65254360D01*
X85169000Y-64745640D01*
X85171716Y-64718062D01*
X85177971Y-64697443D01*
X85188124Y-64678447D01*
X85201792Y-64661792D01*
X85218447Y-64648124D01*
X85237443Y-64637971D01*
X85258062Y-64631716D01*
X85285640Y-64629000D01*
X85744360Y-64629000D01*
X85771938Y-64631716D01*
X85771938Y-64631716D01*
G37*
G36*
X86741938Y-64631716D02*
G01*
X86762557Y-64637971D01*
X86781553Y-64648124D01*
X86798208Y-64661792D01*
X86811876Y-64678447D01*
X86822029Y-64697443D01*
X86828284Y-64718062D01*
X86831000Y-64745640D01*
X86831000Y-65254360D01*
X86828284Y-65281938D01*
X86822029Y-65302557D01*
X86811876Y-65321553D01*
X86798208Y-65338208D01*
X86781553Y-65351876D01*
X86762557Y-65362029D01*
X86741938Y-65368284D01*
X86714360Y-65371000D01*
X86255640Y-65371000D01*
X86228062Y-65368284D01*
X86207443Y-65362029D01*
X86188447Y-65351876D01*
X86171792Y-65338208D01*
X86158124Y-65321553D01*
X86147971Y-65302557D01*
X86141716Y-65281938D01*
X86139000Y-65254360D01*
X86139000Y-64745640D01*
X86141716Y-64718062D01*
X86147971Y-64697443D01*
X86158124Y-64678447D01*
X86171792Y-64661792D01*
X86188447Y-64648124D01*
X86207443Y-64637971D01*
X86228062Y-64631716D01*
X86255640Y-64629000D01*
X86714360Y-64629000D01*
X86741938Y-64631716D01*
X86741938Y-64631716D01*
G37*
G36*
X73741938Y-64631716D02*
G01*
X73762557Y-64637971D01*
X73781553Y-64648124D01*
X73798208Y-64661792D01*
X73811876Y-64678447D01*
X73822029Y-64697443D01*
X73828284Y-64718062D01*
X73831000Y-64745640D01*
X73831000Y-65254360D01*
X73828284Y-65281938D01*
X73822029Y-65302557D01*
X73811876Y-65321553D01*
X73798208Y-65338208D01*
X73781553Y-65351876D01*
X73762557Y-65362029D01*
X73741938Y-65368284D01*
X73714360Y-65371000D01*
X73255640Y-65371000D01*
X73228062Y-65368284D01*
X73207443Y-65362029D01*
X73188447Y-65351876D01*
X73171792Y-65338208D01*
X73158124Y-65321553D01*
X73147971Y-65302557D01*
X73141716Y-65281938D01*
X73139000Y-65254360D01*
X73139000Y-64745640D01*
X73141716Y-64718062D01*
X73147971Y-64697443D01*
X73158124Y-64678447D01*
X73171792Y-64661792D01*
X73188447Y-64648124D01*
X73207443Y-64637971D01*
X73228062Y-64631716D01*
X73255640Y-64629000D01*
X73714360Y-64629000D01*
X73741938Y-64631716D01*
X73741938Y-64631716D01*
G37*
G36*
X72771938Y-64631716D02*
G01*
X72792557Y-64637971D01*
X72811553Y-64648124D01*
X72828208Y-64661792D01*
X72841876Y-64678447D01*
X72852029Y-64697443D01*
X72858284Y-64718062D01*
X72861000Y-64745640D01*
X72861000Y-65254360D01*
X72858284Y-65281938D01*
X72852029Y-65302557D01*
X72841876Y-65321553D01*
X72828208Y-65338208D01*
X72811553Y-65351876D01*
X72792557Y-65362029D01*
X72771938Y-65368284D01*
X72744360Y-65371000D01*
X72285640Y-65371000D01*
X72258062Y-65368284D01*
X72237443Y-65362029D01*
X72218447Y-65351876D01*
X72201792Y-65338208D01*
X72188124Y-65321553D01*
X72177971Y-65302557D01*
X72171716Y-65281938D01*
X72169000Y-65254360D01*
X72169000Y-64745640D01*
X72171716Y-64718062D01*
X72177971Y-64697443D01*
X72188124Y-64678447D01*
X72201792Y-64661792D01*
X72218447Y-64648124D01*
X72237443Y-64637971D01*
X72258062Y-64631716D01*
X72285640Y-64629000D01*
X72744360Y-64629000D01*
X72771938Y-64631716D01*
X72771938Y-64631716D01*
G37*
G36*
X90333642Y-62929781D02*
G01*
X90479414Y-62990162D01*
X90479416Y-62990163D01*
X90610608Y-63077822D01*
X90722178Y-63189392D01*
X90726100Y-63195262D01*
X90809838Y-63320586D01*
X90870219Y-63466358D01*
X90901000Y-63621107D01*
X90901000Y-63778893D01*
X90870219Y-63933642D01*
X90809838Y-64079414D01*
X90809837Y-64079416D01*
X90722178Y-64210608D01*
X90610608Y-64322178D01*
X90479416Y-64409837D01*
X90479415Y-64409838D01*
X90479414Y-64409838D01*
X90333642Y-64470219D01*
X90178893Y-64501000D01*
X90021107Y-64501000D01*
X89866358Y-64470219D01*
X89720586Y-64409838D01*
X89720585Y-64409838D01*
X89720584Y-64409837D01*
X89589392Y-64322178D01*
X89477822Y-64210608D01*
X89390163Y-64079416D01*
X89390162Y-64079414D01*
X89329781Y-63933642D01*
X89299000Y-63778893D01*
X89299000Y-63621107D01*
X89329781Y-63466358D01*
X89390162Y-63320586D01*
X89473900Y-63195262D01*
X89477822Y-63189392D01*
X89589392Y-63077822D01*
X89720584Y-62990163D01*
X89720586Y-62990162D01*
X89866358Y-62929781D01*
X90021107Y-62899000D01*
X90178893Y-62899000D01*
X90333642Y-62929781D01*
X90333642Y-62929781D01*
G37*
G36*
X101409928Y-63056764D02*
G01*
X101431009Y-63063160D01*
X101450445Y-63073548D01*
X101467476Y-63087524D01*
X101481452Y-63104555D01*
X101491840Y-63123991D01*
X101498236Y-63145072D01*
X101501000Y-63173140D01*
X101501000Y-63636860D01*
X101498236Y-63664928D01*
X101491840Y-63686009D01*
X101481452Y-63705445D01*
X101467476Y-63722476D01*
X101450445Y-63736452D01*
X101431009Y-63746840D01*
X101409928Y-63753236D01*
X101381860Y-63756000D01*
X99768140Y-63756000D01*
X99740072Y-63753236D01*
X99718991Y-63746840D01*
X99699555Y-63736452D01*
X99682524Y-63722476D01*
X99668548Y-63705445D01*
X99658160Y-63686009D01*
X99651764Y-63664928D01*
X99649000Y-63636860D01*
X99649000Y-63173140D01*
X99651764Y-63145072D01*
X99658160Y-63123991D01*
X99668548Y-63104555D01*
X99682524Y-63087524D01*
X99699555Y-63073548D01*
X99718991Y-63063160D01*
X99740072Y-63056764D01*
X99768140Y-63054000D01*
X101381860Y-63054000D01*
X101409928Y-63056764D01*
X101409928Y-63056764D01*
G37*
G36*
X96259928Y-63056764D02*
G01*
X96281009Y-63063160D01*
X96300445Y-63073548D01*
X96317476Y-63087524D01*
X96331452Y-63104555D01*
X96341840Y-63123991D01*
X96348236Y-63145072D01*
X96351000Y-63173140D01*
X96351000Y-63636860D01*
X96348236Y-63664928D01*
X96341840Y-63686009D01*
X96331452Y-63705445D01*
X96317476Y-63722476D01*
X96300445Y-63736452D01*
X96281009Y-63746840D01*
X96259928Y-63753236D01*
X96231860Y-63756000D01*
X94618140Y-63756000D01*
X94590072Y-63753236D01*
X94568991Y-63746840D01*
X94549555Y-63736452D01*
X94532524Y-63722476D01*
X94518548Y-63705445D01*
X94508160Y-63686009D01*
X94501764Y-63664928D01*
X94499000Y-63636860D01*
X94499000Y-63173140D01*
X94501764Y-63145072D01*
X94508160Y-63123991D01*
X94518548Y-63104555D01*
X94532524Y-63087524D01*
X94549555Y-63073548D01*
X94568991Y-63063160D01*
X94590072Y-63056764D01*
X94618140Y-63054000D01*
X96231860Y-63054000D01*
X96259928Y-63056764D01*
X96259928Y-63056764D01*
G37*
G36*
X80241938Y-62131716D02*
G01*
X80262557Y-62137971D01*
X80281553Y-62148124D01*
X80298208Y-62161792D01*
X80311876Y-62178447D01*
X80322029Y-62197443D01*
X80328284Y-62218062D01*
X80331000Y-62245640D01*
X80331000Y-62754360D01*
X80328284Y-62781938D01*
X80322029Y-62802557D01*
X80311876Y-62821553D01*
X80298208Y-62838208D01*
X80281553Y-62851876D01*
X80262557Y-62862029D01*
X80241938Y-62868284D01*
X80214360Y-62871000D01*
X79755640Y-62871000D01*
X79728062Y-62868284D01*
X79707443Y-62862029D01*
X79688447Y-62851876D01*
X79671792Y-62838208D01*
X79658124Y-62821553D01*
X79647971Y-62802557D01*
X79641716Y-62781938D01*
X79639000Y-62754360D01*
X79639000Y-62245640D01*
X79641716Y-62218062D01*
X79647971Y-62197443D01*
X79658124Y-62178447D01*
X79671792Y-62161792D01*
X79688447Y-62148124D01*
X79707443Y-62137971D01*
X79728062Y-62131716D01*
X79755640Y-62129000D01*
X80214360Y-62129000D01*
X80241938Y-62131716D01*
X80241938Y-62131716D01*
G37*
G36*
X79271938Y-62131716D02*
G01*
X79292557Y-62137971D01*
X79311553Y-62148124D01*
X79328208Y-62161792D01*
X79341876Y-62178447D01*
X79352029Y-62197443D01*
X79358284Y-62218062D01*
X79361000Y-62245640D01*
X79361000Y-62754360D01*
X79358284Y-62781938D01*
X79352029Y-62802557D01*
X79341876Y-62821553D01*
X79328208Y-62838208D01*
X79311553Y-62851876D01*
X79292557Y-62862029D01*
X79271938Y-62868284D01*
X79244360Y-62871000D01*
X78785640Y-62871000D01*
X78758062Y-62868284D01*
X78737443Y-62862029D01*
X78718447Y-62851876D01*
X78701792Y-62838208D01*
X78688124Y-62821553D01*
X78677971Y-62802557D01*
X78671716Y-62781938D01*
X78669000Y-62754360D01*
X78669000Y-62245640D01*
X78671716Y-62218062D01*
X78677971Y-62197443D01*
X78688124Y-62178447D01*
X78701792Y-62161792D01*
X78718447Y-62148124D01*
X78737443Y-62137971D01*
X78758062Y-62131716D01*
X78785640Y-62129000D01*
X79244360Y-62129000D01*
X79271938Y-62131716D01*
X79271938Y-62131716D01*
G37*
G36*
X104768604Y-61478347D02*
G01*
X104805144Y-61489432D01*
X104838821Y-61507433D01*
X104868341Y-61531659D01*
X104892567Y-61561179D01*
X104910568Y-61594856D01*
X104921653Y-61631396D01*
X104926000Y-61675538D01*
X104926000Y-62624462D01*
X104921653Y-62668604D01*
X104910568Y-62705144D01*
X104892567Y-62738821D01*
X104868341Y-62768341D01*
X104838821Y-62792567D01*
X104805144Y-62810568D01*
X104768604Y-62821653D01*
X104724462Y-62826000D01*
X103275538Y-62826000D01*
X103231396Y-62821653D01*
X103194856Y-62810568D01*
X103161179Y-62792567D01*
X103131659Y-62768341D01*
X103107433Y-62738821D01*
X103089432Y-62705144D01*
X103078347Y-62668604D01*
X103074000Y-62624462D01*
X103074000Y-61675538D01*
X103078347Y-61631396D01*
X103089432Y-61594856D01*
X103107433Y-61561179D01*
X103131659Y-61531659D01*
X103161179Y-61507433D01*
X103194856Y-61489432D01*
X103231396Y-61478347D01*
X103275538Y-61474000D01*
X104724462Y-61474000D01*
X104768604Y-61478347D01*
X104768604Y-61478347D01*
G37*
G36*
X101409928Y-61786764D02*
G01*
X101431009Y-61793160D01*
X101450445Y-61803548D01*
X101467476Y-61817524D01*
X101481452Y-61834555D01*
X101491840Y-61853991D01*
X101498236Y-61875072D01*
X101501000Y-61903140D01*
X101501000Y-62366860D01*
X101498236Y-62394928D01*
X101491840Y-62416009D01*
X101481452Y-62435445D01*
X101467476Y-62452476D01*
X101450445Y-62466452D01*
X101431009Y-62476840D01*
X101409928Y-62483236D01*
X101381860Y-62486000D01*
X99768140Y-62486000D01*
X99740072Y-62483236D01*
X99718991Y-62476840D01*
X99699555Y-62466452D01*
X99682524Y-62452476D01*
X99668548Y-62435445D01*
X99658160Y-62416009D01*
X99651764Y-62394928D01*
X99649000Y-62366860D01*
X99649000Y-61903140D01*
X99651764Y-61875072D01*
X99658160Y-61853991D01*
X99668548Y-61834555D01*
X99682524Y-61817524D01*
X99699555Y-61803548D01*
X99718991Y-61793160D01*
X99740072Y-61786764D01*
X99768140Y-61784000D01*
X101381860Y-61784000D01*
X101409928Y-61786764D01*
X101409928Y-61786764D01*
G37*
G36*
X96259928Y-61786764D02*
G01*
X96281009Y-61793160D01*
X96300445Y-61803548D01*
X96317476Y-61817524D01*
X96331452Y-61834555D01*
X96341840Y-61853991D01*
X96348236Y-61875072D01*
X96351000Y-61903140D01*
X96351000Y-62366860D01*
X96348236Y-62394928D01*
X96341840Y-62416009D01*
X96331452Y-62435445D01*
X96317476Y-62452476D01*
X96300445Y-62466452D01*
X96281009Y-62476840D01*
X96259928Y-62483236D01*
X96231860Y-62486000D01*
X94618140Y-62486000D01*
X94590072Y-62483236D01*
X94568991Y-62476840D01*
X94549555Y-62466452D01*
X94532524Y-62452476D01*
X94518548Y-62435445D01*
X94508160Y-62416009D01*
X94501764Y-62394928D01*
X94499000Y-62366860D01*
X94499000Y-61903140D01*
X94501764Y-61875072D01*
X94508160Y-61853991D01*
X94518548Y-61834555D01*
X94532524Y-61817524D01*
X94549555Y-61803548D01*
X94568991Y-61793160D01*
X94590072Y-61786764D01*
X94618140Y-61784000D01*
X96231860Y-61784000D01*
X96259928Y-61786764D01*
X96259928Y-61786764D01*
G37*
G36*
X91364499Y-61303445D02*
G01*
X91401995Y-61314820D01*
X91436554Y-61333292D01*
X91466847Y-61358153D01*
X91491708Y-61388446D01*
X91510180Y-61423005D01*
X91521555Y-61460501D01*
X91526000Y-61505638D01*
X91526000Y-62244362D01*
X91521555Y-62289499D01*
X91510180Y-62326995D01*
X91491708Y-62361554D01*
X91466847Y-62391847D01*
X91436554Y-62416708D01*
X91401995Y-62435180D01*
X91364499Y-62446555D01*
X91319362Y-62451000D01*
X90680638Y-62451000D01*
X90635501Y-62446555D01*
X90598005Y-62435180D01*
X90563446Y-62416708D01*
X90533153Y-62391847D01*
X90508292Y-62361554D01*
X90489820Y-62326995D01*
X90478445Y-62289499D01*
X90474000Y-62244362D01*
X90474000Y-61505638D01*
X90478445Y-61460501D01*
X90489820Y-61423005D01*
X90508292Y-61388446D01*
X90533153Y-61358153D01*
X90563446Y-61333292D01*
X90598005Y-61314820D01*
X90635501Y-61303445D01*
X90680638Y-61299000D01*
X91319362Y-61299000D01*
X91364499Y-61303445D01*
X91364499Y-61303445D01*
G37*
G36*
X89364499Y-61303445D02*
G01*
X89401995Y-61314820D01*
X89436554Y-61333292D01*
X89466847Y-61358153D01*
X89491708Y-61388446D01*
X89510180Y-61423005D01*
X89521555Y-61460501D01*
X89526000Y-61505638D01*
X89526000Y-62244362D01*
X89521555Y-62289499D01*
X89510180Y-62326995D01*
X89491708Y-62361554D01*
X89466847Y-62391847D01*
X89436554Y-62416708D01*
X89401995Y-62435180D01*
X89364499Y-62446555D01*
X89319362Y-62451000D01*
X88680638Y-62451000D01*
X88635501Y-62446555D01*
X88598005Y-62435180D01*
X88563446Y-62416708D01*
X88533153Y-62391847D01*
X88508292Y-62361554D01*
X88489820Y-62326995D01*
X88478445Y-62289499D01*
X88474000Y-62244362D01*
X88474000Y-61505638D01*
X88478445Y-61460501D01*
X88489820Y-61423005D01*
X88508292Y-61388446D01*
X88533153Y-61358153D01*
X88563446Y-61333292D01*
X88598005Y-61314820D01*
X88635501Y-61303445D01*
X88680638Y-61299000D01*
X89319362Y-61299000D01*
X89364499Y-61303445D01*
X89364499Y-61303445D01*
G37*
G36*
X93281938Y-61641716D02*
G01*
X93302557Y-61647971D01*
X93321553Y-61658124D01*
X93338208Y-61671792D01*
X93351876Y-61688447D01*
X93362029Y-61707443D01*
X93368284Y-61728062D01*
X93371000Y-61755640D01*
X93371000Y-62214360D01*
X93368284Y-62241938D01*
X93362029Y-62262557D01*
X93351876Y-62281553D01*
X93338208Y-62298208D01*
X93321553Y-62311876D01*
X93302557Y-62322029D01*
X93281938Y-62328284D01*
X93254360Y-62331000D01*
X92745640Y-62331000D01*
X92718062Y-62328284D01*
X92697443Y-62322029D01*
X92678447Y-62311876D01*
X92661792Y-62298208D01*
X92648124Y-62281553D01*
X92637971Y-62262557D01*
X92631716Y-62241938D01*
X92629000Y-62214360D01*
X92629000Y-61755640D01*
X92631716Y-61728062D01*
X92637971Y-61707443D01*
X92648124Y-61688447D01*
X92661792Y-61671792D01*
X92678447Y-61658124D01*
X92697443Y-61647971D01*
X92718062Y-61641716D01*
X92745640Y-61639000D01*
X93254360Y-61639000D01*
X93281938Y-61641716D01*
X93281938Y-61641716D01*
G37*
G36*
X67091000Y-61551000D02*
G01*
X61909000Y-61551000D01*
X61909000Y-59949000D01*
X67091000Y-59949000D01*
X67091000Y-61551000D01*
X67091000Y-61551000D01*
G37*
G36*
X93281938Y-60671716D02*
G01*
X93302557Y-60677971D01*
X93321553Y-60688124D01*
X93338208Y-60701792D01*
X93351876Y-60718447D01*
X93362029Y-60737443D01*
X93368284Y-60758062D01*
X93371000Y-60785640D01*
X93371000Y-61244360D01*
X93368284Y-61271938D01*
X93362029Y-61292557D01*
X93351876Y-61311553D01*
X93338208Y-61328208D01*
X93321553Y-61341876D01*
X93302557Y-61352029D01*
X93281938Y-61358284D01*
X93254360Y-61361000D01*
X92745640Y-61361000D01*
X92718062Y-61358284D01*
X92697443Y-61352029D01*
X92678447Y-61341876D01*
X92661792Y-61328208D01*
X92648124Y-61311553D01*
X92637971Y-61292557D01*
X92631716Y-61271938D01*
X92629000Y-61244360D01*
X92629000Y-60785640D01*
X92631716Y-60758062D01*
X92637971Y-60737443D01*
X92648124Y-60718447D01*
X92661792Y-60701792D01*
X92678447Y-60688124D01*
X92697443Y-60677971D01*
X92718062Y-60671716D01*
X92745640Y-60669000D01*
X93254360Y-60669000D01*
X93281938Y-60671716D01*
X93281938Y-60671716D01*
G37*
G36*
X96259928Y-60516764D02*
G01*
X96281009Y-60523160D01*
X96300445Y-60533548D01*
X96317476Y-60547524D01*
X96331452Y-60564555D01*
X96341840Y-60583991D01*
X96348236Y-60605072D01*
X96351000Y-60633140D01*
X96351000Y-61096860D01*
X96348236Y-61124928D01*
X96341840Y-61146009D01*
X96331452Y-61165445D01*
X96317476Y-61182476D01*
X96300445Y-61196452D01*
X96281009Y-61206840D01*
X96259928Y-61213236D01*
X96231860Y-61216000D01*
X94618140Y-61216000D01*
X94590072Y-61213236D01*
X94568991Y-61206840D01*
X94549555Y-61196452D01*
X94532524Y-61182476D01*
X94518548Y-61165445D01*
X94508160Y-61146009D01*
X94501764Y-61124928D01*
X94499000Y-61096860D01*
X94499000Y-60633140D01*
X94501764Y-60605072D01*
X94508160Y-60583991D01*
X94518548Y-60564555D01*
X94532524Y-60547524D01*
X94549555Y-60533548D01*
X94568991Y-60523160D01*
X94590072Y-60516764D01*
X94618140Y-60514000D01*
X96231860Y-60514000D01*
X96259928Y-60516764D01*
X96259928Y-60516764D01*
G37*
G36*
X101409928Y-60516764D02*
G01*
X101431009Y-60523160D01*
X101450445Y-60533548D01*
X101467476Y-60547524D01*
X101481452Y-60564555D01*
X101491840Y-60583991D01*
X101498236Y-60605072D01*
X101501000Y-60633140D01*
X101501000Y-61096860D01*
X101498236Y-61124928D01*
X101491840Y-61146009D01*
X101481452Y-61165445D01*
X101467476Y-61182476D01*
X101450445Y-61196452D01*
X101431009Y-61206840D01*
X101409928Y-61213236D01*
X101381860Y-61216000D01*
X99768140Y-61216000D01*
X99740072Y-61213236D01*
X99718991Y-61206840D01*
X99699555Y-61196452D01*
X99682524Y-61182476D01*
X99668548Y-61165445D01*
X99658160Y-61146009D01*
X99651764Y-61124928D01*
X99649000Y-61096860D01*
X99649000Y-60633140D01*
X99651764Y-60605072D01*
X99658160Y-60583991D01*
X99668548Y-60564555D01*
X99682524Y-60547524D01*
X99699555Y-60533548D01*
X99718991Y-60523160D01*
X99740072Y-60516764D01*
X99768140Y-60514000D01*
X101381860Y-60514000D01*
X101409928Y-60516764D01*
X101409928Y-60516764D01*
G37*
G36*
X89364499Y-59553445D02*
G01*
X89401995Y-59564820D01*
X89436554Y-59583292D01*
X89466847Y-59608153D01*
X89491708Y-59638446D01*
X89510180Y-59673005D01*
X89521555Y-59710501D01*
X89526000Y-59755638D01*
X89526000Y-60494362D01*
X89521555Y-60539499D01*
X89510180Y-60576995D01*
X89491708Y-60611554D01*
X89466847Y-60641847D01*
X89436554Y-60666708D01*
X89401995Y-60685180D01*
X89364499Y-60696555D01*
X89319362Y-60701000D01*
X88680638Y-60701000D01*
X88635501Y-60696555D01*
X88598005Y-60685180D01*
X88563446Y-60666708D01*
X88533153Y-60641847D01*
X88508292Y-60611554D01*
X88489820Y-60576995D01*
X88478445Y-60539499D01*
X88474000Y-60494362D01*
X88474000Y-59755638D01*
X88478445Y-59710501D01*
X88489820Y-59673005D01*
X88508292Y-59638446D01*
X88533153Y-59608153D01*
X88563446Y-59583292D01*
X88598005Y-59564820D01*
X88635501Y-59553445D01*
X88680638Y-59549000D01*
X89319362Y-59549000D01*
X89364499Y-59553445D01*
X89364499Y-59553445D01*
G37*
G36*
X91364499Y-59553445D02*
G01*
X91401995Y-59564820D01*
X91436554Y-59583292D01*
X91466847Y-59608153D01*
X91491708Y-59638446D01*
X91510180Y-59673005D01*
X91521555Y-59710501D01*
X91526000Y-59755638D01*
X91526000Y-60494362D01*
X91521555Y-60539499D01*
X91510180Y-60576995D01*
X91491708Y-60611554D01*
X91466847Y-60641847D01*
X91436554Y-60666708D01*
X91401995Y-60685180D01*
X91364499Y-60696555D01*
X91319362Y-60701000D01*
X90680638Y-60701000D01*
X90635501Y-60696555D01*
X90598005Y-60685180D01*
X90563446Y-60666708D01*
X90533153Y-60641847D01*
X90508292Y-60611554D01*
X90489820Y-60576995D01*
X90478445Y-60539499D01*
X90474000Y-60494362D01*
X90474000Y-59755638D01*
X90478445Y-59710501D01*
X90489820Y-59673005D01*
X90508292Y-59638446D01*
X90533153Y-59608153D01*
X90563446Y-59583292D01*
X90598005Y-59564820D01*
X90635501Y-59553445D01*
X90680638Y-59549000D01*
X91319362Y-59549000D01*
X91364499Y-59553445D01*
X91364499Y-59553445D01*
G37*
G36*
X104768604Y-58678347D02*
G01*
X104805144Y-58689432D01*
X104838821Y-58707433D01*
X104868341Y-58731659D01*
X104892567Y-58761179D01*
X104910568Y-58794856D01*
X104921653Y-58831396D01*
X104926000Y-58875538D01*
X104926000Y-59824462D01*
X104921653Y-59868604D01*
X104910568Y-59905144D01*
X104892567Y-59938821D01*
X104868341Y-59968341D01*
X104838821Y-59992567D01*
X104805144Y-60010568D01*
X104768604Y-60021653D01*
X104724462Y-60026000D01*
X103275538Y-60026000D01*
X103231396Y-60021653D01*
X103194856Y-60010568D01*
X103161179Y-59992567D01*
X103131659Y-59968341D01*
X103107433Y-59938821D01*
X103089432Y-59905144D01*
X103078347Y-59868604D01*
X103074000Y-59824462D01*
X103074000Y-58875538D01*
X103078347Y-58831396D01*
X103089432Y-58794856D01*
X103107433Y-58761179D01*
X103131659Y-58731659D01*
X103161179Y-58707433D01*
X103194856Y-58689432D01*
X103231396Y-58678347D01*
X103275538Y-58674000D01*
X104724462Y-58674000D01*
X104768604Y-58678347D01*
X104768604Y-58678347D01*
G37*
G36*
X96259928Y-59246764D02*
G01*
X96281009Y-59253160D01*
X96300445Y-59263548D01*
X96317476Y-59277524D01*
X96331452Y-59294555D01*
X96341840Y-59313991D01*
X96348236Y-59335072D01*
X96351000Y-59363140D01*
X96351000Y-59826860D01*
X96348236Y-59854928D01*
X96341840Y-59876009D01*
X96331452Y-59895445D01*
X96317476Y-59912476D01*
X96300445Y-59926452D01*
X96281009Y-59936840D01*
X96259928Y-59943236D01*
X96231860Y-59946000D01*
X94618140Y-59946000D01*
X94590072Y-59943236D01*
X94568991Y-59936840D01*
X94549555Y-59926452D01*
X94532524Y-59912476D01*
X94518548Y-59895445D01*
X94508160Y-59876009D01*
X94501764Y-59854928D01*
X94499000Y-59826860D01*
X94499000Y-59363140D01*
X94501764Y-59335072D01*
X94508160Y-59313991D01*
X94518548Y-59294555D01*
X94532524Y-59277524D01*
X94549555Y-59263548D01*
X94568991Y-59253160D01*
X94590072Y-59246764D01*
X94618140Y-59244000D01*
X96231860Y-59244000D01*
X96259928Y-59246764D01*
X96259928Y-59246764D01*
G37*
G36*
X101409928Y-59246764D02*
G01*
X101431009Y-59253160D01*
X101450445Y-59263548D01*
X101467476Y-59277524D01*
X101481452Y-59294555D01*
X101491840Y-59313991D01*
X101498236Y-59335072D01*
X101501000Y-59363140D01*
X101501000Y-59826860D01*
X101498236Y-59854928D01*
X101491840Y-59876009D01*
X101481452Y-59895445D01*
X101467476Y-59912476D01*
X101450445Y-59926452D01*
X101431009Y-59936840D01*
X101409928Y-59943236D01*
X101381860Y-59946000D01*
X99768140Y-59946000D01*
X99740072Y-59943236D01*
X99718991Y-59936840D01*
X99699555Y-59926452D01*
X99682524Y-59912476D01*
X99668548Y-59895445D01*
X99658160Y-59876009D01*
X99651764Y-59854928D01*
X99649000Y-59826860D01*
X99649000Y-59363140D01*
X99651764Y-59335072D01*
X99658160Y-59313991D01*
X99668548Y-59294555D01*
X99682524Y-59277524D01*
X99699555Y-59263548D01*
X99718991Y-59253160D01*
X99740072Y-59246764D01*
X99768140Y-59244000D01*
X101381860Y-59244000D01*
X101409928Y-59246764D01*
X101409928Y-59246764D01*
G37*
G36*
X106268604Y-45728347D02*
G01*
X106305144Y-45739432D01*
X106338821Y-45757433D01*
X106368341Y-45781659D01*
X106392567Y-45811179D01*
X106410568Y-45844856D01*
X106421653Y-45881396D01*
X106426000Y-45925538D01*
X106426000Y-46874462D01*
X106421653Y-46918604D01*
X106410568Y-46955144D01*
X106392567Y-46988821D01*
X106368341Y-47018341D01*
X106338821Y-47042567D01*
X106305144Y-47060568D01*
X106268604Y-47071653D01*
X106224462Y-47076000D01*
X104775538Y-47076000D01*
X104731396Y-47071653D01*
X104694856Y-47060568D01*
X104661179Y-47042567D01*
X104631659Y-47018341D01*
X104607433Y-46988821D01*
X104589432Y-46955144D01*
X104578347Y-46918604D01*
X104574000Y-46874462D01*
X104574000Y-45925538D01*
X104578347Y-45881396D01*
X104589432Y-45844856D01*
X104607433Y-45811179D01*
X104631659Y-45781659D01*
X104661179Y-45757433D01*
X104694856Y-45739432D01*
X104731396Y-45728347D01*
X104775538Y-45724000D01*
X106224462Y-45724000D01*
X106268604Y-45728347D01*
X106268604Y-45728347D01*
G37*
G36*
X102326000Y-46681000D02*
G01*
X99674000Y-46681000D01*
X99674000Y-45519000D01*
X102326000Y-45519000D01*
X102326000Y-46681000D01*
X102326000Y-46681000D01*
G37*
G36*
X96614499Y-45153445D02*
G01*
X96651995Y-45164820D01*
X96686554Y-45183292D01*
X96716847Y-45208153D01*
X96741708Y-45238446D01*
X96760180Y-45273005D01*
X96771555Y-45310501D01*
X96776000Y-45355638D01*
X96776000Y-46094362D01*
X96771555Y-46139499D01*
X96760180Y-46176995D01*
X96741708Y-46211554D01*
X96716847Y-46241847D01*
X96686554Y-46266708D01*
X96651995Y-46285180D01*
X96614499Y-46296555D01*
X96569362Y-46301000D01*
X95930638Y-46301000D01*
X95885501Y-46296555D01*
X95848005Y-46285180D01*
X95813446Y-46266708D01*
X95783153Y-46241847D01*
X95758292Y-46211554D01*
X95739820Y-46176995D01*
X95728445Y-46139499D01*
X95724000Y-46094362D01*
X95724000Y-45355638D01*
X95728445Y-45310501D01*
X95739820Y-45273005D01*
X95758292Y-45238446D01*
X95783153Y-45208153D01*
X95813446Y-45183292D01*
X95848005Y-45164820D01*
X95885501Y-45153445D01*
X95930638Y-45149000D01*
X96569362Y-45149000D01*
X96614499Y-45153445D01*
X96614499Y-45153445D01*
G37*
G36*
X94614499Y-45153445D02*
G01*
X94651995Y-45164820D01*
X94686554Y-45183292D01*
X94716847Y-45208153D01*
X94741708Y-45238446D01*
X94760180Y-45273005D01*
X94771555Y-45310501D01*
X94776000Y-45355638D01*
X94776000Y-46094362D01*
X94771555Y-46139499D01*
X94760180Y-46176995D01*
X94741708Y-46211554D01*
X94716847Y-46241847D01*
X94686554Y-46266708D01*
X94651995Y-46285180D01*
X94614499Y-46296555D01*
X94569362Y-46301000D01*
X93930638Y-46301000D01*
X93885501Y-46296555D01*
X93848005Y-46285180D01*
X93813446Y-46266708D01*
X93783153Y-46241847D01*
X93758292Y-46211554D01*
X93739820Y-46176995D01*
X93728445Y-46139499D01*
X93724000Y-46094362D01*
X93724000Y-45355638D01*
X93728445Y-45310501D01*
X93739820Y-45273005D01*
X93758292Y-45238446D01*
X93783153Y-45208153D01*
X93813446Y-45183292D01*
X93848005Y-45164820D01*
X93885501Y-45153445D01*
X93930638Y-45149000D01*
X94569362Y-45149000D01*
X94614499Y-45153445D01*
X94614499Y-45153445D01*
G37*
G36*
X69686425Y-43342760D02*
G01*
X69686428Y-43342761D01*
X69686429Y-43342761D01*
X69865693Y-43397140D01*
X69865696Y-43397142D01*
X69865697Y-43397142D01*
X70030903Y-43485446D01*
X70175712Y-43604288D01*
X70294554Y-43749097D01*
X70372198Y-43894360D01*
X70382860Y-43914307D01*
X70412191Y-44011000D01*
X70437240Y-44093575D01*
X70455601Y-44280000D01*
X70437240Y-44466425D01*
X70437239Y-44466428D01*
X70437239Y-44466429D01*
X70382860Y-44645693D01*
X70382858Y-44645696D01*
X70382858Y-44645697D01*
X70294554Y-44810903D01*
X70175712Y-44955712D01*
X70030903Y-45074554D01*
X69882170Y-45154053D01*
X69865693Y-45162860D01*
X69686429Y-45217239D01*
X69686428Y-45217239D01*
X69686425Y-45217240D01*
X69546718Y-45231000D01*
X67653282Y-45231000D01*
X67513575Y-45217240D01*
X67513572Y-45217239D01*
X67513571Y-45217239D01*
X67334307Y-45162860D01*
X67317830Y-45154053D01*
X67169097Y-45074554D01*
X67024288Y-44955712D01*
X66905446Y-44810903D01*
X66817142Y-44645697D01*
X66817142Y-44645696D01*
X66817140Y-44645693D01*
X66762761Y-44466429D01*
X66762761Y-44466428D01*
X66762760Y-44466425D01*
X66744399Y-44280000D01*
X66762760Y-44093575D01*
X66787809Y-44011000D01*
X66817140Y-43914307D01*
X66827802Y-43894360D01*
X66905446Y-43749097D01*
X67024288Y-43604288D01*
X67169097Y-43485446D01*
X67334303Y-43397142D01*
X67334304Y-43397142D01*
X67334307Y-43397140D01*
X67513571Y-43342761D01*
X67513572Y-43342761D01*
X67513575Y-43342760D01*
X67653282Y-43329000D01*
X69546718Y-43329000D01*
X69686425Y-43342760D01*
X69686425Y-43342760D01*
G37*
G36*
X98531938Y-44506716D02*
G01*
X98552557Y-44512971D01*
X98571553Y-44523124D01*
X98588208Y-44536792D01*
X98601876Y-44553447D01*
X98612029Y-44572443D01*
X98618284Y-44593062D01*
X98621000Y-44620640D01*
X98621000Y-45079360D01*
X98618284Y-45106938D01*
X98612029Y-45127557D01*
X98601876Y-45146553D01*
X98588208Y-45163208D01*
X98571553Y-45176876D01*
X98552557Y-45187029D01*
X98531938Y-45193284D01*
X98504360Y-45196000D01*
X97995640Y-45196000D01*
X97968062Y-45193284D01*
X97947443Y-45187029D01*
X97928447Y-45176876D01*
X97911792Y-45163208D01*
X97898124Y-45146553D01*
X97887971Y-45127557D01*
X97881716Y-45106938D01*
X97879000Y-45079360D01*
X97879000Y-44620640D01*
X97881716Y-44593062D01*
X97887971Y-44572443D01*
X97898124Y-44553447D01*
X97911792Y-44536792D01*
X97928447Y-44523124D01*
X97947443Y-44512971D01*
X97968062Y-44506716D01*
X97995640Y-44504000D01*
X98504360Y-44504000D01*
X98531938Y-44506716D01*
X98531938Y-44506716D01*
G37*
G36*
X103881938Y-44291716D02*
G01*
X103902557Y-44297971D01*
X103921553Y-44308124D01*
X103938208Y-44321792D01*
X103951876Y-44338447D01*
X103962029Y-44357443D01*
X103968284Y-44378062D01*
X103971000Y-44405640D01*
X103971000Y-44864360D01*
X103968284Y-44891938D01*
X103962029Y-44912557D01*
X103951876Y-44931553D01*
X103938208Y-44948208D01*
X103921553Y-44961876D01*
X103902557Y-44972029D01*
X103881938Y-44978284D01*
X103854360Y-44981000D01*
X103345640Y-44981000D01*
X103318062Y-44978284D01*
X103297443Y-44972029D01*
X103278447Y-44961876D01*
X103261792Y-44948208D01*
X103248124Y-44931553D01*
X103237971Y-44912557D01*
X103231716Y-44891938D01*
X103229000Y-44864360D01*
X103229000Y-44405640D01*
X103231716Y-44378062D01*
X103237971Y-44357443D01*
X103248124Y-44338447D01*
X103261792Y-44321792D01*
X103278447Y-44308124D01*
X103297443Y-44297971D01*
X103318062Y-44291716D01*
X103345640Y-44289000D01*
X103854360Y-44289000D01*
X103881938Y-44291716D01*
X103881938Y-44291716D01*
G37*
G36*
X96614499Y-43403445D02*
G01*
X96651995Y-43414820D01*
X96686554Y-43433292D01*
X96716847Y-43458153D01*
X96741708Y-43488446D01*
X96760180Y-43523005D01*
X96771555Y-43560501D01*
X96776000Y-43605638D01*
X96776000Y-44344362D01*
X96771555Y-44389499D01*
X96760180Y-44426995D01*
X96741708Y-44461554D01*
X96716847Y-44491847D01*
X96686554Y-44516708D01*
X96651995Y-44535180D01*
X96614499Y-44546555D01*
X96569362Y-44551000D01*
X95930638Y-44551000D01*
X95885501Y-44546555D01*
X95848005Y-44535180D01*
X95813446Y-44516708D01*
X95783153Y-44491847D01*
X95758292Y-44461554D01*
X95739820Y-44426995D01*
X95728445Y-44389499D01*
X95724000Y-44344362D01*
X95724000Y-43605638D01*
X95728445Y-43560501D01*
X95739820Y-43523005D01*
X95758292Y-43488446D01*
X95783153Y-43458153D01*
X95813446Y-43433292D01*
X95848005Y-43414820D01*
X95885501Y-43403445D01*
X95930638Y-43399000D01*
X96569362Y-43399000D01*
X96614499Y-43403445D01*
X96614499Y-43403445D01*
G37*
G36*
X94614499Y-43403445D02*
G01*
X94651995Y-43414820D01*
X94686554Y-43433292D01*
X94716847Y-43458153D01*
X94741708Y-43488446D01*
X94760180Y-43523005D01*
X94771555Y-43560501D01*
X94776000Y-43605638D01*
X94776000Y-44344362D01*
X94771555Y-44389499D01*
X94760180Y-44426995D01*
X94741708Y-44461554D01*
X94716847Y-44491847D01*
X94686554Y-44516708D01*
X94651995Y-44535180D01*
X94614499Y-44546555D01*
X94569362Y-44551000D01*
X93930638Y-44551000D01*
X93885501Y-44546555D01*
X93848005Y-44535180D01*
X93813446Y-44516708D01*
X93783153Y-44491847D01*
X93758292Y-44461554D01*
X93739820Y-44426995D01*
X93728445Y-44389499D01*
X93724000Y-44344362D01*
X93724000Y-43605638D01*
X93728445Y-43560501D01*
X93739820Y-43523005D01*
X93758292Y-43488446D01*
X93783153Y-43458153D01*
X93813446Y-43433292D01*
X93848005Y-43414820D01*
X93885501Y-43403445D01*
X93930638Y-43399000D01*
X94569362Y-43399000D01*
X94614499Y-43403445D01*
X94614499Y-43403445D01*
G37*
G36*
X102326000Y-44481000D02*
G01*
X99674000Y-44481000D01*
X99674000Y-43319000D01*
X102326000Y-43319000D01*
X102326000Y-44481000D01*
X102326000Y-44481000D01*
G37*
G36*
X106268604Y-42928347D02*
G01*
X106305144Y-42939432D01*
X106338821Y-42957433D01*
X106368341Y-42981659D01*
X106392567Y-43011179D01*
X106410568Y-43044856D01*
X106421653Y-43081396D01*
X106426000Y-43125538D01*
X106426000Y-44074462D01*
X106421653Y-44118604D01*
X106410568Y-44155144D01*
X106392567Y-44188821D01*
X106368341Y-44218341D01*
X106338821Y-44242567D01*
X106305144Y-44260568D01*
X106268604Y-44271653D01*
X106224462Y-44276000D01*
X104775538Y-44276000D01*
X104731396Y-44271653D01*
X104694856Y-44260568D01*
X104661179Y-44242567D01*
X104631659Y-44218341D01*
X104607433Y-44188821D01*
X104589432Y-44155144D01*
X104578347Y-44118604D01*
X104574000Y-44074462D01*
X104574000Y-43125538D01*
X104578347Y-43081396D01*
X104589432Y-43044856D01*
X104607433Y-43011179D01*
X104631659Y-42981659D01*
X104661179Y-42957433D01*
X104694856Y-42939432D01*
X104731396Y-42928347D01*
X104775538Y-42924000D01*
X106224462Y-42924000D01*
X106268604Y-42928347D01*
X106268604Y-42928347D01*
G37*
G36*
X98531938Y-43536716D02*
G01*
X98552557Y-43542971D01*
X98571553Y-43553124D01*
X98588208Y-43566792D01*
X98601876Y-43583447D01*
X98612029Y-43602443D01*
X98618284Y-43623062D01*
X98621000Y-43650640D01*
X98621000Y-44109360D01*
X98618284Y-44136938D01*
X98612029Y-44157557D01*
X98601876Y-44176553D01*
X98588208Y-44193208D01*
X98571553Y-44206876D01*
X98552557Y-44217029D01*
X98531938Y-44223284D01*
X98504360Y-44226000D01*
X97995640Y-44226000D01*
X97968062Y-44223284D01*
X97947443Y-44217029D01*
X97928447Y-44206876D01*
X97911792Y-44193208D01*
X97898124Y-44176553D01*
X97887971Y-44157557D01*
X97881716Y-44136938D01*
X97879000Y-44109360D01*
X97879000Y-43650640D01*
X97881716Y-43623062D01*
X97887971Y-43602443D01*
X97898124Y-43583447D01*
X97911792Y-43566792D01*
X97928447Y-43553124D01*
X97947443Y-43542971D01*
X97968062Y-43536716D01*
X97995640Y-43534000D01*
X98504360Y-43534000D01*
X98531938Y-43536716D01*
X98531938Y-43536716D01*
G37*
G36*
X103881938Y-43321716D02*
G01*
X103902557Y-43327971D01*
X103921553Y-43338124D01*
X103938208Y-43351792D01*
X103951876Y-43368447D01*
X103962029Y-43387443D01*
X103968284Y-43408062D01*
X103971000Y-43435640D01*
X103971000Y-43894360D01*
X103968284Y-43921938D01*
X103962029Y-43942557D01*
X103951876Y-43961553D01*
X103938208Y-43978208D01*
X103921553Y-43991876D01*
X103902557Y-44002029D01*
X103881938Y-44008284D01*
X103854360Y-44011000D01*
X103345640Y-44011000D01*
X103318062Y-44008284D01*
X103297443Y-44002029D01*
X103278447Y-43991876D01*
X103261792Y-43978208D01*
X103248124Y-43961553D01*
X103237971Y-43942557D01*
X103231716Y-43921938D01*
X103229000Y-43894360D01*
X103229000Y-43435640D01*
X103231716Y-43408062D01*
X103237971Y-43387443D01*
X103248124Y-43368447D01*
X103261792Y-43351792D01*
X103278447Y-43338124D01*
X103297443Y-43327971D01*
X103318062Y-43321716D01*
X103345640Y-43319000D01*
X103854360Y-43319000D01*
X103881938Y-43321716D01*
X103881938Y-43321716D01*
G37*
G36*
X81741938Y-41631716D02*
G01*
X81762557Y-41637971D01*
X81781553Y-41648124D01*
X81798208Y-41661792D01*
X81811876Y-41678447D01*
X81822029Y-41697443D01*
X81828284Y-41718062D01*
X81831000Y-41745640D01*
X81831000Y-42254360D01*
X81828284Y-42281938D01*
X81822029Y-42302557D01*
X81811876Y-42321553D01*
X81798208Y-42338208D01*
X81781553Y-42351876D01*
X81762557Y-42362029D01*
X81741938Y-42368284D01*
X81714360Y-42371000D01*
X81255640Y-42371000D01*
X81228062Y-42368284D01*
X81207443Y-42362029D01*
X81188447Y-42351876D01*
X81171792Y-42338208D01*
X81158124Y-42321553D01*
X81147971Y-42302557D01*
X81141716Y-42281938D01*
X81139000Y-42254360D01*
X81139000Y-41745640D01*
X81141716Y-41718062D01*
X81147971Y-41697443D01*
X81158124Y-41678447D01*
X81171792Y-41661792D01*
X81188447Y-41648124D01*
X81207443Y-41637971D01*
X81228062Y-41631716D01*
X81255640Y-41629000D01*
X81714360Y-41629000D01*
X81741938Y-41631716D01*
X81741938Y-41631716D01*
G37*
G36*
X80771938Y-41631716D02*
G01*
X80792557Y-41637971D01*
X80811553Y-41648124D01*
X80828208Y-41661792D01*
X80841876Y-41678447D01*
X80852029Y-41697443D01*
X80858284Y-41718062D01*
X80861000Y-41745640D01*
X80861000Y-42254360D01*
X80858284Y-42281938D01*
X80852029Y-42302557D01*
X80841876Y-42321553D01*
X80828208Y-42338208D01*
X80811553Y-42351876D01*
X80792557Y-42362029D01*
X80771938Y-42368284D01*
X80744360Y-42371000D01*
X80285640Y-42371000D01*
X80258062Y-42368284D01*
X80237443Y-42362029D01*
X80218447Y-42351876D01*
X80201792Y-42338208D01*
X80188124Y-42321553D01*
X80177971Y-42302557D01*
X80171716Y-42281938D01*
X80169000Y-42254360D01*
X80169000Y-41745640D01*
X80171716Y-41718062D01*
X80177971Y-41697443D01*
X80188124Y-41678447D01*
X80201792Y-41661792D01*
X80218447Y-41648124D01*
X80237443Y-41637971D01*
X80258062Y-41631716D01*
X80285640Y-41629000D01*
X80744360Y-41629000D01*
X80771938Y-41631716D01*
X80771938Y-41631716D01*
G37*
G36*
X81331000Y-40776000D02*
G01*
X79669000Y-40776000D01*
X79669000Y-38124000D01*
X81331000Y-38124000D01*
X81331000Y-40776000D01*
X81331000Y-40776000D01*
G37*
G36*
X84031000Y-40776000D02*
G01*
X82369000Y-40776000D01*
X82369000Y-40024000D01*
X84031000Y-40024000D01*
X84031000Y-40776000D01*
X84031000Y-40776000D01*
G37*
G36*
X70310915Y-38252934D02*
G01*
X70343424Y-38262795D01*
X70373382Y-38278809D01*
X70399641Y-38300359D01*
X70421191Y-38326618D01*
X70437205Y-38356576D01*
X70447066Y-38389085D01*
X70451000Y-38429029D01*
X70451000Y-39970971D01*
X70447066Y-40010915D01*
X70437205Y-40043424D01*
X70421191Y-40073382D01*
X70399641Y-40099641D01*
X70373382Y-40121191D01*
X70343424Y-40137205D01*
X70310915Y-40147066D01*
X70270971Y-40151000D01*
X66929029Y-40151000D01*
X66889085Y-40147066D01*
X66856576Y-40137205D01*
X66826618Y-40121191D01*
X66800359Y-40099641D01*
X66778809Y-40073382D01*
X66762795Y-40043424D01*
X66752934Y-40010915D01*
X66749000Y-39970971D01*
X66749000Y-38429029D01*
X66752934Y-38389085D01*
X66762795Y-38356576D01*
X66778809Y-38326618D01*
X66800359Y-38300359D01*
X66826618Y-38278809D01*
X66856576Y-38262795D01*
X66889085Y-38252934D01*
X66929029Y-38249000D01*
X70270971Y-38249000D01*
X70310915Y-38252934D01*
X70310915Y-38252934D01*
G37*
G36*
X87359999Y-37699737D02*
G01*
X87369608Y-37702652D01*
X87378472Y-37707390D01*
X87386237Y-37713763D01*
X87396448Y-37726206D01*
X87403378Y-37736575D01*
X87420705Y-37753902D01*
X87441080Y-37767515D01*
X87463720Y-37776891D01*
X87487753Y-37781671D01*
X87512257Y-37781670D01*
X87536290Y-37776888D01*
X87558929Y-37767510D01*
X87579302Y-37753895D01*
X87596629Y-37736568D01*
X87603558Y-37726198D01*
X87613763Y-37713763D01*
X87621528Y-37707390D01*
X87630392Y-37702652D01*
X87640001Y-37699737D01*
X87656140Y-37698148D01*
X88143861Y-37698148D01*
X88162199Y-37699954D01*
X88174450Y-37700556D01*
X88192869Y-37700556D01*
X88215149Y-37702750D01*
X88299233Y-37719476D01*
X88320660Y-37725976D01*
X88399858Y-37758780D01*
X88405303Y-37761691D01*
X88405309Y-37761693D01*
X88414169Y-37766429D01*
X88414173Y-37766432D01*
X88419614Y-37769340D01*
X88490899Y-37816971D01*
X88508204Y-37831172D01*
X88568828Y-37891796D01*
X88583029Y-37909101D01*
X88630660Y-37980386D01*
X88633568Y-37985827D01*
X88633571Y-37985831D01*
X88638307Y-37994691D01*
X88638309Y-37994697D01*
X88641220Y-38000142D01*
X88674024Y-38079340D01*
X88680524Y-38100767D01*
X88697250Y-38184851D01*
X88699444Y-38207131D01*
X88699444Y-38225550D01*
X88700046Y-38237801D01*
X88701852Y-38256139D01*
X88701852Y-38743862D01*
X88700046Y-38762199D01*
X88699444Y-38774450D01*
X88699444Y-38792869D01*
X88697250Y-38815149D01*
X88680524Y-38899233D01*
X88674024Y-38920660D01*
X88641220Y-38999858D01*
X88638309Y-39005303D01*
X88638307Y-39005309D01*
X88633571Y-39014169D01*
X88633568Y-39014173D01*
X88630660Y-39019614D01*
X88583029Y-39090899D01*
X88568828Y-39108204D01*
X88508204Y-39168828D01*
X88490899Y-39183029D01*
X88419614Y-39230660D01*
X88414173Y-39233568D01*
X88414169Y-39233571D01*
X88405309Y-39238307D01*
X88405303Y-39238309D01*
X88399858Y-39241220D01*
X88320660Y-39274024D01*
X88299233Y-39280524D01*
X88215149Y-39297250D01*
X88192869Y-39299444D01*
X88174450Y-39299444D01*
X88162199Y-39300046D01*
X88143862Y-39301852D01*
X87656140Y-39301852D01*
X87640001Y-39300263D01*
X87630392Y-39297348D01*
X87621528Y-39292610D01*
X87613763Y-39286237D01*
X87603552Y-39273794D01*
X87596622Y-39263425D01*
X87579295Y-39246098D01*
X87558920Y-39232485D01*
X87536280Y-39223109D01*
X87512247Y-39218329D01*
X87487743Y-39218330D01*
X87463710Y-39223112D01*
X87441071Y-39232490D01*
X87420698Y-39246105D01*
X87403371Y-39263432D01*
X87396442Y-39273802D01*
X87386237Y-39286237D01*
X87378472Y-39292610D01*
X87369608Y-39297348D01*
X87359999Y-39300263D01*
X87343860Y-39301852D01*
X86856138Y-39301852D01*
X86837801Y-39300046D01*
X86825550Y-39299444D01*
X86807131Y-39299444D01*
X86784851Y-39297250D01*
X86700767Y-39280524D01*
X86679340Y-39274024D01*
X86600142Y-39241220D01*
X86594697Y-39238309D01*
X86594691Y-39238307D01*
X86585831Y-39233571D01*
X86585827Y-39233568D01*
X86580386Y-39230660D01*
X86509101Y-39183029D01*
X86491796Y-39168828D01*
X86431172Y-39108204D01*
X86416971Y-39090899D01*
X86369340Y-39019614D01*
X86366432Y-39014173D01*
X86366429Y-39014169D01*
X86361693Y-39005309D01*
X86361691Y-39005303D01*
X86358780Y-38999858D01*
X86325976Y-38920660D01*
X86319476Y-38899233D01*
X86302750Y-38815149D01*
X86300556Y-38792869D01*
X86300556Y-38774450D01*
X86299954Y-38762199D01*
X86298148Y-38743862D01*
X86298148Y-38256139D01*
X86299954Y-38237801D01*
X86300556Y-38225550D01*
X86300556Y-38207131D01*
X86302750Y-38184851D01*
X86319476Y-38100767D01*
X86325976Y-38079340D01*
X86358780Y-38000142D01*
X86361691Y-37994697D01*
X86361693Y-37994691D01*
X86366429Y-37985831D01*
X86366432Y-37985827D01*
X86369340Y-37980386D01*
X86416971Y-37909101D01*
X86431172Y-37891796D01*
X86491796Y-37831172D01*
X86509101Y-37816971D01*
X86580386Y-37769340D01*
X86585827Y-37766432D01*
X86585831Y-37766429D01*
X86594691Y-37761693D01*
X86594697Y-37761691D01*
X86600142Y-37758780D01*
X86679340Y-37725976D01*
X86700767Y-37719476D01*
X86784851Y-37702750D01*
X86807131Y-37700556D01*
X86825550Y-37700556D01*
X86837801Y-37699954D01*
X86856139Y-37698148D01*
X87343860Y-37698148D01*
X87359999Y-37699737D01*
X87359999Y-37699737D01*
G37*
G36*
X103233642Y-37729781D02*
G01*
X103379414Y-37790162D01*
X103379416Y-37790163D01*
X103510608Y-37877822D01*
X103622178Y-37989392D01*
X103709837Y-38120584D01*
X103709838Y-38120586D01*
X103770219Y-38266358D01*
X103801000Y-38421107D01*
X103801000Y-38578893D01*
X103770219Y-38733642D01*
X103711252Y-38876000D01*
X103709837Y-38879416D01*
X103622178Y-39010608D01*
X103510608Y-39122178D01*
X103379416Y-39209837D01*
X103379415Y-39209838D01*
X103379414Y-39209838D01*
X103233642Y-39270219D01*
X103078893Y-39301000D01*
X102921107Y-39301000D01*
X102766358Y-39270219D01*
X102620586Y-39209838D01*
X102620585Y-39209838D01*
X102620584Y-39209837D01*
X102489392Y-39122178D01*
X102377822Y-39010608D01*
X102290163Y-38879416D01*
X102288748Y-38876000D01*
X102229781Y-38733642D01*
X102199000Y-38578893D01*
X102199000Y-38421107D01*
X102229781Y-38266358D01*
X102290162Y-38120586D01*
X102290163Y-38120584D01*
X102377822Y-37989392D01*
X102489392Y-37877822D01*
X102620584Y-37790163D01*
X102620586Y-37790162D01*
X102766358Y-37729781D01*
X102921107Y-37699000D01*
X103078893Y-37699000D01*
X103233642Y-37729781D01*
X103233642Y-37729781D01*
G37*
G36*
X84031000Y-38876000D02*
G01*
X82369000Y-38876000D01*
X82369000Y-38124000D01*
X84031000Y-38124000D01*
X84031000Y-38876000D01*
X84031000Y-38876000D01*
G37*
G36*
X87359999Y-33699737D02*
G01*
X87369608Y-33702652D01*
X87378472Y-33707390D01*
X87386237Y-33713763D01*
X87396448Y-33726206D01*
X87403378Y-33736575D01*
X87420705Y-33753902D01*
X87441080Y-33767515D01*
X87463720Y-33776891D01*
X87487753Y-33781671D01*
X87512257Y-33781670D01*
X87536290Y-33776888D01*
X87558929Y-33767510D01*
X87579302Y-33753895D01*
X87596629Y-33736568D01*
X87603558Y-33726198D01*
X87613763Y-33713763D01*
X87621528Y-33707390D01*
X87630392Y-33702652D01*
X87640001Y-33699737D01*
X87656140Y-33698148D01*
X88143861Y-33698148D01*
X88162199Y-33699954D01*
X88174450Y-33700556D01*
X88192869Y-33700556D01*
X88215149Y-33702750D01*
X88299233Y-33719476D01*
X88320660Y-33725976D01*
X88399858Y-33758780D01*
X88405303Y-33761691D01*
X88405309Y-33761693D01*
X88414169Y-33766429D01*
X88414173Y-33766432D01*
X88419614Y-33769340D01*
X88490899Y-33816971D01*
X88508204Y-33831172D01*
X88568828Y-33891796D01*
X88583029Y-33909101D01*
X88630660Y-33980386D01*
X88633568Y-33985827D01*
X88633571Y-33985831D01*
X88638307Y-33994691D01*
X88638309Y-33994697D01*
X88641220Y-34000142D01*
X88674024Y-34079340D01*
X88680524Y-34100767D01*
X88697250Y-34184851D01*
X88699444Y-34207131D01*
X88699444Y-34225550D01*
X88700046Y-34237801D01*
X88701852Y-34256139D01*
X88701852Y-34743862D01*
X88700046Y-34762199D01*
X88699444Y-34774450D01*
X88699444Y-34792869D01*
X88697250Y-34815149D01*
X88680524Y-34899233D01*
X88674024Y-34920660D01*
X88641220Y-34999858D01*
X88638309Y-35005303D01*
X88638307Y-35005309D01*
X88633571Y-35014169D01*
X88633568Y-35014173D01*
X88630660Y-35019614D01*
X88583029Y-35090899D01*
X88568828Y-35108204D01*
X88508204Y-35168828D01*
X88490899Y-35183029D01*
X88419614Y-35230660D01*
X88414173Y-35233568D01*
X88414169Y-35233571D01*
X88405309Y-35238307D01*
X88405303Y-35238309D01*
X88399858Y-35241220D01*
X88320660Y-35274024D01*
X88299233Y-35280524D01*
X88215149Y-35297250D01*
X88192869Y-35299444D01*
X88174450Y-35299444D01*
X88162199Y-35300046D01*
X88143862Y-35301852D01*
X87656140Y-35301852D01*
X87640001Y-35300263D01*
X87630392Y-35297348D01*
X87621528Y-35292610D01*
X87613763Y-35286237D01*
X87603552Y-35273794D01*
X87596622Y-35263425D01*
X87579295Y-35246098D01*
X87558920Y-35232485D01*
X87536280Y-35223109D01*
X87512247Y-35218329D01*
X87487743Y-35218330D01*
X87463710Y-35223112D01*
X87441071Y-35232490D01*
X87420698Y-35246105D01*
X87403371Y-35263432D01*
X87396442Y-35273802D01*
X87386237Y-35286237D01*
X87378472Y-35292610D01*
X87369608Y-35297348D01*
X87359999Y-35300263D01*
X87343860Y-35301852D01*
X86856138Y-35301852D01*
X86837801Y-35300046D01*
X86825550Y-35299444D01*
X86807131Y-35299444D01*
X86784851Y-35297250D01*
X86700767Y-35280524D01*
X86679340Y-35274024D01*
X86600142Y-35241220D01*
X86594697Y-35238309D01*
X86594691Y-35238307D01*
X86585831Y-35233571D01*
X86585827Y-35233568D01*
X86580386Y-35230660D01*
X86509101Y-35183029D01*
X86491796Y-35168828D01*
X86431172Y-35108204D01*
X86416971Y-35090899D01*
X86369340Y-35019614D01*
X86366432Y-35014173D01*
X86366429Y-35014169D01*
X86361693Y-35005309D01*
X86361691Y-35005303D01*
X86358780Y-34999858D01*
X86325976Y-34920660D01*
X86319476Y-34899233D01*
X86302750Y-34815149D01*
X86300556Y-34792869D01*
X86300556Y-34774450D01*
X86299954Y-34762199D01*
X86298148Y-34743862D01*
X86298148Y-34256139D01*
X86299954Y-34237801D01*
X86300556Y-34225550D01*
X86300556Y-34207131D01*
X86302750Y-34184851D01*
X86319476Y-34100767D01*
X86325976Y-34079340D01*
X86358780Y-34000142D01*
X86361691Y-33994697D01*
X86361693Y-33994691D01*
X86366429Y-33985831D01*
X86366432Y-33985827D01*
X86369340Y-33980386D01*
X86416971Y-33909101D01*
X86431172Y-33891796D01*
X86491796Y-33831172D01*
X86509101Y-33816971D01*
X86580386Y-33769340D01*
X86585827Y-33766432D01*
X86585831Y-33766429D01*
X86594691Y-33761693D01*
X86594697Y-33761691D01*
X86600142Y-33758780D01*
X86679340Y-33725976D01*
X86700767Y-33719476D01*
X86784851Y-33702750D01*
X86807131Y-33700556D01*
X86825550Y-33700556D01*
X86837801Y-33699954D01*
X86856139Y-33698148D01*
X87343860Y-33698148D01*
X87359999Y-33699737D01*
X87359999Y-33699737D01*
G37*
G36*
X105375256Y-28391298D02*
G01*
X105481579Y-28412447D01*
X105782042Y-28536903D01*
X106052451Y-28717585D01*
X106282415Y-28947549D01*
X106463097Y-29217958D01*
X106587553Y-29518421D01*
X106651000Y-29837391D01*
X106651000Y-30162609D01*
X106587553Y-30481579D01*
X106463097Y-30782042D01*
X106282415Y-31052451D01*
X106052451Y-31282415D01*
X105782042Y-31463097D01*
X105481579Y-31587553D01*
X105375256Y-31608702D01*
X105162611Y-31651000D01*
X104837389Y-31651000D01*
X104624744Y-31608702D01*
X104518421Y-31587553D01*
X104217958Y-31463097D01*
X103947549Y-31282415D01*
X103717585Y-31052451D01*
X103536903Y-30782042D01*
X103412447Y-30481579D01*
X103349000Y-30162609D01*
X103349000Y-29837391D01*
X103412447Y-29518421D01*
X103536903Y-29217958D01*
X103717585Y-28947549D01*
X103947549Y-28717585D01*
X104217958Y-28536903D01*
X104518421Y-28412447D01*
X104624744Y-28391298D01*
X104837389Y-28349000D01*
X105162611Y-28349000D01*
X105375256Y-28391298D01*
X105375256Y-28391298D01*
G37*
G36*
X65375256Y-28391298D02*
G01*
X65481579Y-28412447D01*
X65782042Y-28536903D01*
X66052451Y-28717585D01*
X66282415Y-28947549D01*
X66463097Y-29217958D01*
X66587553Y-29518421D01*
X66651000Y-29837391D01*
X66651000Y-30162609D01*
X66587553Y-30481579D01*
X66463097Y-30782042D01*
X66282415Y-31052451D01*
X66052451Y-31282415D01*
X65782042Y-31463097D01*
X65481579Y-31587553D01*
X65375256Y-31608702D01*
X65162611Y-31651000D01*
X64837389Y-31651000D01*
X64624744Y-31608702D01*
X64518421Y-31587553D01*
X64217958Y-31463097D01*
X63947549Y-31282415D01*
X63717585Y-31052451D01*
X63536903Y-30782042D01*
X63412447Y-30481579D01*
X63349000Y-30162609D01*
X63349000Y-29837391D01*
X63412447Y-29518421D01*
X63536903Y-29217958D01*
X63717585Y-28947549D01*
X63947549Y-28717585D01*
X64217958Y-28536903D01*
X64518421Y-28412447D01*
X64624744Y-28391298D01*
X64837389Y-28349000D01*
X65162611Y-28349000D01*
X65375256Y-28391298D01*
X65375256Y-28391298D01*
G37*
M02*
