G04 #@! TF.GenerationSoftware,KiCad,Pcbnew,5.1.2-1.fc30*
G04 #@! TF.CreationDate,2019-06-07T11:55:58+09:00*
G04 #@! TF.ProjectId,ltc6268_tia,6c746336-3236-4385-9f74-69612e6b6963,rev?*
G04 #@! TF.SameCoordinates,Original*
G04 #@! TF.FileFunction,Soldermask,Bot*
G04 #@! TF.FilePolarity,Negative*
%FSLAX46Y46*%
G04 Gerber Fmt 4.6, Leading zero omitted, Abs format (unit mm)*
G04 Created by KiCad (PCBNEW 5.1.2-1.fc30) date 2019-06-07 11:55:58*
%MOMM*%
%LPD*%
G04 APERTURE LIST*
%ADD10C,0.800000*%
%ADD11C,0.100000*%
G04 APERTURE END LIST*
D10*
X105750000Y-60850000D02*
X103150000Y-60850000D01*
X106300000Y-61400000D02*
X105750000Y-60850000D01*
X106300000Y-62950000D02*
X106300000Y-61400000D01*
X105550000Y-63700000D02*
X106300000Y-62950000D01*
X103000000Y-63700000D02*
X105550000Y-63700000D01*
X98300000Y-61200000D02*
X98650000Y-60850000D01*
X98300000Y-62800000D02*
X98300000Y-61200000D01*
X99200000Y-63700000D02*
X98300000Y-62800000D01*
X103000000Y-63700000D02*
X99200000Y-63700000D01*
X98650000Y-60850000D02*
X103150000Y-60850000D01*
D11*
G36*
X65375256Y-73391298D02*
G01*
X65481579Y-73412447D01*
X65782042Y-73536903D01*
X66052451Y-73717585D01*
X66282415Y-73947549D01*
X66463097Y-74217958D01*
X66587553Y-74518421D01*
X66651000Y-74837391D01*
X66651000Y-75162609D01*
X66587553Y-75481579D01*
X66463097Y-75782042D01*
X66282415Y-76052451D01*
X66052451Y-76282415D01*
X65782042Y-76463097D01*
X65481579Y-76587553D01*
X65375256Y-76608702D01*
X65162611Y-76651000D01*
X64837389Y-76651000D01*
X64624744Y-76608702D01*
X64518421Y-76587553D01*
X64217958Y-76463097D01*
X63947549Y-76282415D01*
X63717585Y-76052451D01*
X63536903Y-75782042D01*
X63412447Y-75481579D01*
X63349000Y-75162609D01*
X63349000Y-74837391D01*
X63412447Y-74518421D01*
X63536903Y-74217958D01*
X63717585Y-73947549D01*
X63947549Y-73717585D01*
X64217958Y-73536903D01*
X64518421Y-73412447D01*
X64624744Y-73391298D01*
X64837389Y-73349000D01*
X65162611Y-73349000D01*
X65375256Y-73391298D01*
X65375256Y-73391298D01*
G37*
G36*
X105375256Y-73391298D02*
G01*
X105481579Y-73412447D01*
X105782042Y-73536903D01*
X106052451Y-73717585D01*
X106282415Y-73947549D01*
X106463097Y-74217958D01*
X106587553Y-74518421D01*
X106651000Y-74837391D01*
X106651000Y-75162609D01*
X106587553Y-75481579D01*
X106463097Y-75782042D01*
X106282415Y-76052451D01*
X106052451Y-76282415D01*
X105782042Y-76463097D01*
X105481579Y-76587553D01*
X105375256Y-76608702D01*
X105162611Y-76651000D01*
X104837389Y-76651000D01*
X104624744Y-76608702D01*
X104518421Y-76587553D01*
X104217958Y-76463097D01*
X103947549Y-76282415D01*
X103717585Y-76052451D01*
X103536903Y-75782042D01*
X103412447Y-75481579D01*
X103349000Y-75162609D01*
X103349000Y-74837391D01*
X103412447Y-74518421D01*
X103536903Y-74217958D01*
X103717585Y-73947549D01*
X103947549Y-73717585D01*
X104217958Y-73536903D01*
X104518421Y-73412447D01*
X104624744Y-73391298D01*
X104837389Y-73349000D01*
X105162611Y-73349000D01*
X105375256Y-73391298D01*
X105375256Y-73391298D01*
G37*
G36*
X67091000Y-70051000D02*
G01*
X61909000Y-70051000D01*
X61909000Y-68449000D01*
X67091000Y-68449000D01*
X67091000Y-70051000D01*
X67091000Y-70051000D01*
G37*
G36*
X98071938Y-61731716D02*
G01*
X98092557Y-61737971D01*
X98111553Y-61748124D01*
X98128208Y-61761792D01*
X98141876Y-61778447D01*
X98152029Y-61797443D01*
X98158284Y-61818062D01*
X98161000Y-61845640D01*
X98161000Y-62354360D01*
X98158284Y-62381938D01*
X98152029Y-62402557D01*
X98141876Y-62421553D01*
X98128208Y-62438208D01*
X98111553Y-62451876D01*
X98092557Y-62462029D01*
X98071938Y-62468284D01*
X98044360Y-62471000D01*
X97585640Y-62471000D01*
X97558062Y-62468284D01*
X97537443Y-62462029D01*
X97518447Y-62451876D01*
X97501792Y-62438208D01*
X97488124Y-62421553D01*
X97477971Y-62402557D01*
X97471716Y-62381938D01*
X97469000Y-62354360D01*
X97469000Y-61845640D01*
X97471716Y-61818062D01*
X97477971Y-61797443D01*
X97488124Y-61778447D01*
X97501792Y-61761792D01*
X97518447Y-61748124D01*
X97537443Y-61737971D01*
X97558062Y-61731716D01*
X97585640Y-61729000D01*
X98044360Y-61729000D01*
X98071938Y-61731716D01*
X98071938Y-61731716D01*
G37*
G36*
X99041938Y-61731716D02*
G01*
X99062557Y-61737971D01*
X99081553Y-61748124D01*
X99098208Y-61761792D01*
X99111876Y-61778447D01*
X99122029Y-61797443D01*
X99128284Y-61818062D01*
X99131000Y-61845640D01*
X99131000Y-62354360D01*
X99128284Y-62381938D01*
X99122029Y-62402557D01*
X99111876Y-62421553D01*
X99098208Y-62438208D01*
X99081553Y-62451876D01*
X99062557Y-62462029D01*
X99041938Y-62468284D01*
X99014360Y-62471000D01*
X98555640Y-62471000D01*
X98528062Y-62468284D01*
X98507443Y-62462029D01*
X98488447Y-62451876D01*
X98471792Y-62438208D01*
X98458124Y-62421553D01*
X98447971Y-62402557D01*
X98441716Y-62381938D01*
X98439000Y-62354360D01*
X98439000Y-61845640D01*
X98441716Y-61818062D01*
X98447971Y-61797443D01*
X98458124Y-61778447D01*
X98471792Y-61761792D01*
X98488447Y-61748124D01*
X98507443Y-61737971D01*
X98528062Y-61731716D01*
X98555640Y-61729000D01*
X99014360Y-61729000D01*
X99041938Y-61731716D01*
X99041938Y-61731716D01*
G37*
G36*
X67091000Y-61551000D02*
G01*
X61909000Y-61551000D01*
X61909000Y-59949000D01*
X67091000Y-59949000D01*
X67091000Y-61551000D01*
X67091000Y-61551000D01*
G37*
G36*
X69686425Y-43342760D02*
G01*
X69686428Y-43342761D01*
X69686429Y-43342761D01*
X69865693Y-43397140D01*
X69865696Y-43397142D01*
X69865697Y-43397142D01*
X70030903Y-43485446D01*
X70175712Y-43604288D01*
X70294554Y-43749097D01*
X70382858Y-43914303D01*
X70382860Y-43914307D01*
X70437239Y-44093571D01*
X70437240Y-44093575D01*
X70455601Y-44280000D01*
X70437240Y-44466425D01*
X70437239Y-44466428D01*
X70437239Y-44466429D01*
X70382860Y-44645693D01*
X70382858Y-44645696D01*
X70382858Y-44645697D01*
X70294554Y-44810903D01*
X70175712Y-44955712D01*
X70030903Y-45074554D01*
X69865697Y-45162858D01*
X69865693Y-45162860D01*
X69686429Y-45217239D01*
X69686428Y-45217239D01*
X69686425Y-45217240D01*
X69546718Y-45231000D01*
X67653282Y-45231000D01*
X67513575Y-45217240D01*
X67513572Y-45217239D01*
X67513571Y-45217239D01*
X67334307Y-45162860D01*
X67334303Y-45162858D01*
X67169097Y-45074554D01*
X67024288Y-44955712D01*
X66905446Y-44810903D01*
X66817142Y-44645697D01*
X66817142Y-44645696D01*
X66817140Y-44645693D01*
X66762761Y-44466429D01*
X66762761Y-44466428D01*
X66762760Y-44466425D01*
X66744399Y-44280000D01*
X66762760Y-44093575D01*
X66762761Y-44093571D01*
X66817140Y-43914307D01*
X66817142Y-43914303D01*
X66905446Y-43749097D01*
X67024288Y-43604288D01*
X67169097Y-43485446D01*
X67334303Y-43397142D01*
X67334304Y-43397142D01*
X67334307Y-43397140D01*
X67513571Y-43342761D01*
X67513572Y-43342761D01*
X67513575Y-43342760D01*
X67653282Y-43329000D01*
X69546718Y-43329000D01*
X69686425Y-43342760D01*
X69686425Y-43342760D01*
G37*
G36*
X70310915Y-38252934D02*
G01*
X70343424Y-38262795D01*
X70373382Y-38278809D01*
X70399641Y-38300359D01*
X70421191Y-38326618D01*
X70437205Y-38356576D01*
X70447066Y-38389085D01*
X70451000Y-38429029D01*
X70451000Y-39970971D01*
X70447066Y-40010915D01*
X70437205Y-40043424D01*
X70421191Y-40073382D01*
X70399641Y-40099641D01*
X70373382Y-40121191D01*
X70343424Y-40137205D01*
X70310915Y-40147066D01*
X70270971Y-40151000D01*
X66929029Y-40151000D01*
X66889085Y-40147066D01*
X66856576Y-40137205D01*
X66826618Y-40121191D01*
X66800359Y-40099641D01*
X66778809Y-40073382D01*
X66762795Y-40043424D01*
X66752934Y-40010915D01*
X66749000Y-39970971D01*
X66749000Y-38429029D01*
X66752934Y-38389085D01*
X66762795Y-38356576D01*
X66778809Y-38326618D01*
X66800359Y-38300359D01*
X66826618Y-38278809D01*
X66856576Y-38262795D01*
X66889085Y-38252934D01*
X66929029Y-38249000D01*
X70270971Y-38249000D01*
X70310915Y-38252934D01*
X70310915Y-38252934D01*
G37*
G36*
X65375256Y-28391298D02*
G01*
X65481579Y-28412447D01*
X65782042Y-28536903D01*
X66052451Y-28717585D01*
X66282415Y-28947549D01*
X66463097Y-29217958D01*
X66587553Y-29518421D01*
X66651000Y-29837391D01*
X66651000Y-30162609D01*
X66587553Y-30481579D01*
X66463097Y-30782042D01*
X66282415Y-31052451D01*
X66052451Y-31282415D01*
X65782042Y-31463097D01*
X65481579Y-31587553D01*
X65375256Y-31608702D01*
X65162611Y-31651000D01*
X64837389Y-31651000D01*
X64624744Y-31608702D01*
X64518421Y-31587553D01*
X64217958Y-31463097D01*
X63947549Y-31282415D01*
X63717585Y-31052451D01*
X63536903Y-30782042D01*
X63412447Y-30481579D01*
X63349000Y-30162609D01*
X63349000Y-29837391D01*
X63412447Y-29518421D01*
X63536903Y-29217958D01*
X63717585Y-28947549D01*
X63947549Y-28717585D01*
X64217958Y-28536903D01*
X64518421Y-28412447D01*
X64624744Y-28391298D01*
X64837389Y-28349000D01*
X65162611Y-28349000D01*
X65375256Y-28391298D01*
X65375256Y-28391298D01*
G37*
G36*
X105375256Y-28391298D02*
G01*
X105481579Y-28412447D01*
X105782042Y-28536903D01*
X106052451Y-28717585D01*
X106282415Y-28947549D01*
X106463097Y-29217958D01*
X106587553Y-29518421D01*
X106651000Y-29837391D01*
X106651000Y-30162609D01*
X106587553Y-30481579D01*
X106463097Y-30782042D01*
X106282415Y-31052451D01*
X106052451Y-31282415D01*
X105782042Y-31463097D01*
X105481579Y-31587553D01*
X105375256Y-31608702D01*
X105162611Y-31651000D01*
X104837389Y-31651000D01*
X104624744Y-31608702D01*
X104518421Y-31587553D01*
X104217958Y-31463097D01*
X103947549Y-31282415D01*
X103717585Y-31052451D01*
X103536903Y-30782042D01*
X103412447Y-30481579D01*
X103349000Y-30162609D01*
X103349000Y-29837391D01*
X103412447Y-29518421D01*
X103536903Y-29217958D01*
X103717585Y-28947549D01*
X103947549Y-28717585D01*
X104217958Y-28536903D01*
X104518421Y-28412447D01*
X104624744Y-28391298D01*
X104837389Y-28349000D01*
X105162611Y-28349000D01*
X105375256Y-28391298D01*
X105375256Y-28391298D01*
G37*
M02*
