G04 #@! TF.GenerationSoftware,KiCad,Pcbnew,5.1.2-1.fc30*
G04 #@! TF.CreationDate,2019-06-07T11:55:58+09:00*
G04 #@! TF.ProjectId,ltc6268_tia,6c746336-3236-4385-9f74-69612e6b6963,rev?*
G04 #@! TF.SameCoordinates,Original*
G04 #@! TF.FileFunction,Legend,Top*
G04 #@! TF.FilePolarity,Positive*
%FSLAX46Y46*%
G04 Gerber Fmt 4.6, Leading zero omitted, Abs format (unit mm)*
G04 Created by KiCad (PCBNEW 5.1.2-1.fc30) date 2019-06-07 11:55:58*
%MOMM*%
%LPD*%
G04 APERTURE LIST*
%ADD10C,0.300000*%
%ADD11C,0.100000*%
%ADD12C,0.120000*%
%ADD13C,0.150000*%
%ADD14C,0.400000*%
G04 APERTURE END LIST*
D10*
X89837857Y-37678571D02*
X90337857Y-39178571D01*
X90837857Y-37678571D01*
X91337857Y-39178571D02*
X91337857Y-37678571D01*
X91909285Y-37678571D01*
X92052142Y-37750000D01*
X92123571Y-37821428D01*
X92195000Y-37964285D01*
X92195000Y-38178571D01*
X92123571Y-38321428D01*
X92052142Y-38392857D01*
X91909285Y-38464285D01*
X91337857Y-38464285D01*
X92837857Y-39178571D02*
X92837857Y-37678571D01*
X93195000Y-37678571D01*
X93409285Y-37750000D01*
X93552142Y-37892857D01*
X93623571Y-38035714D01*
X93695000Y-38321428D01*
X93695000Y-38535714D01*
X93623571Y-38821428D01*
X93552142Y-38964285D01*
X93409285Y-39107142D01*
X93195000Y-39178571D01*
X92837857Y-39178571D01*
X89837857Y-33678571D02*
X90337857Y-35178571D01*
X90837857Y-33678571D01*
X92123571Y-33750000D02*
X91980714Y-33678571D01*
X91766428Y-33678571D01*
X91552142Y-33750000D01*
X91409285Y-33892857D01*
X91337857Y-34035714D01*
X91266428Y-34321428D01*
X91266428Y-34535714D01*
X91337857Y-34821428D01*
X91409285Y-34964285D01*
X91552142Y-35107142D01*
X91766428Y-35178571D01*
X91909285Y-35178571D01*
X92123571Y-35107142D01*
X92195000Y-35035714D01*
X92195000Y-34535714D01*
X91909285Y-34535714D01*
X92837857Y-35178571D02*
X92837857Y-33678571D01*
X93695000Y-35178571D01*
X93695000Y-33678571D01*
X94409285Y-35178571D02*
X94409285Y-33678571D01*
X94766428Y-33678571D01*
X94980714Y-33750000D01*
X95123571Y-33892857D01*
X95195000Y-34035714D01*
X95266428Y-34321428D01*
X95266428Y-34535714D01*
X95195000Y-34821428D01*
X95123571Y-34964285D01*
X94980714Y-35107142D01*
X94766428Y-35178571D01*
X94409285Y-35178571D01*
D11*
G36*
X100000000Y-33000000D02*
G01*
X70000000Y-33000000D01*
X70000000Y-25000000D01*
X100000000Y-25000000D01*
X100000000Y-33000000D01*
G37*
X100000000Y-33000000D02*
X70000000Y-33000000D01*
X70000000Y-25000000D01*
X100000000Y-25000000D01*
X100000000Y-33000000D01*
D10*
X74384285Y-77998571D02*
X74384285Y-76998571D01*
X74384285Y-77284285D02*
X74455714Y-77141428D01*
X74527142Y-77070000D01*
X74670000Y-76998571D01*
X74812857Y-76998571D01*
X76098571Y-77998571D02*
X75241428Y-77998571D01*
X75670000Y-77998571D02*
X75670000Y-76498571D01*
X75527142Y-76712857D01*
X75384285Y-76855714D01*
X75241428Y-76927142D01*
X78670000Y-77998571D02*
X77812857Y-77998571D01*
X78241428Y-77998571D02*
X78241428Y-76498571D01*
X78098571Y-76712857D01*
X77955714Y-76855714D01*
X77812857Y-76927142D01*
X79384285Y-77998571D02*
X79670000Y-77998571D01*
X79812857Y-77927142D01*
X79884285Y-77855714D01*
X80027142Y-77641428D01*
X80098571Y-77355714D01*
X80098571Y-76784285D01*
X80027142Y-76641428D01*
X79955714Y-76570000D01*
X79812857Y-76498571D01*
X79527142Y-76498571D01*
X79384285Y-76570000D01*
X79312857Y-76641428D01*
X79241428Y-76784285D01*
X79241428Y-77141428D01*
X79312857Y-77284285D01*
X79384285Y-77355714D01*
X79527142Y-77427142D01*
X79812857Y-77427142D01*
X79955714Y-77355714D01*
X80027142Y-77284285D01*
X80098571Y-77141428D01*
X80741428Y-77427142D02*
X81884285Y-77427142D01*
X82884285Y-76498571D02*
X83027142Y-76498571D01*
X83170000Y-76570000D01*
X83241428Y-76641428D01*
X83312857Y-76784285D01*
X83384285Y-77070000D01*
X83384285Y-77427142D01*
X83312857Y-77712857D01*
X83241428Y-77855714D01*
X83170000Y-77927142D01*
X83027142Y-77998571D01*
X82884285Y-77998571D01*
X82741428Y-77927142D01*
X82670000Y-77855714D01*
X82598571Y-77712857D01*
X82527142Y-77427142D01*
X82527142Y-77070000D01*
X82598571Y-76784285D01*
X82670000Y-76641428D01*
X82741428Y-76570000D01*
X82884285Y-76498571D01*
X84670000Y-76498571D02*
X84384285Y-76498571D01*
X84241428Y-76570000D01*
X84170000Y-76641428D01*
X84027142Y-76855714D01*
X83955714Y-77141428D01*
X83955714Y-77712857D01*
X84027142Y-77855714D01*
X84098571Y-77927142D01*
X84241428Y-77998571D01*
X84527142Y-77998571D01*
X84670000Y-77927142D01*
X84741428Y-77855714D01*
X84812857Y-77712857D01*
X84812857Y-77355714D01*
X84741428Y-77212857D01*
X84670000Y-77141428D01*
X84527142Y-77070000D01*
X84241428Y-77070000D01*
X84098571Y-77141428D01*
X84027142Y-77212857D01*
X83955714Y-77355714D01*
X85455714Y-77427142D02*
X86598571Y-77427142D01*
X87598571Y-76498571D02*
X87741428Y-76498571D01*
X87884285Y-76570000D01*
X87955714Y-76641428D01*
X88027142Y-76784285D01*
X88098571Y-77070000D01*
X88098571Y-77427142D01*
X88027142Y-77712857D01*
X87955714Y-77855714D01*
X87884285Y-77927142D01*
X87741428Y-77998571D01*
X87598571Y-77998571D01*
X87455714Y-77927142D01*
X87384285Y-77855714D01*
X87312857Y-77712857D01*
X87241428Y-77427142D01*
X87241428Y-77070000D01*
X87312857Y-76784285D01*
X87384285Y-76641428D01*
X87455714Y-76570000D01*
X87598571Y-76498571D01*
X88598571Y-76498571D02*
X89598571Y-76498571D01*
X88955714Y-77998571D01*
D12*
X80282570Y-37390000D02*
G75*
G03X80282570Y-37390000I-312570J0D01*
G01*
X99831403Y-47290000D02*
G75*
G03X99831403Y-47290000I-321403J0D01*
G01*
X101411856Y-64590000D02*
G75*
G03X101411856Y-64590000I-431856J0D01*
G01*
D13*
X105498095Y-59752380D02*
X105498095Y-58752380D01*
X106069523Y-59752380D02*
X105640952Y-59180952D01*
X106069523Y-58752380D02*
X105498095Y-59323809D01*
X106858095Y-47062380D02*
X106858095Y-46062380D01*
X107429523Y-47062380D02*
X107000952Y-46490952D01*
X107429523Y-46062380D02*
X106858095Y-46633809D01*
D10*
X62883333Y-56179761D02*
X63264285Y-56179761D01*
X63454761Y-56275000D01*
X63645238Y-56465476D01*
X63740476Y-56846428D01*
X63740476Y-57513095D01*
X63645238Y-57894047D01*
X63454761Y-58084523D01*
X63264285Y-58179761D01*
X62883333Y-58179761D01*
X62692857Y-58084523D01*
X62502380Y-57894047D01*
X62407142Y-57513095D01*
X62407142Y-56846428D01*
X62502380Y-56465476D01*
X62692857Y-56275000D01*
X62883333Y-56179761D01*
X65454761Y-56846428D02*
X65454761Y-58179761D01*
X64597619Y-56846428D02*
X64597619Y-57894047D01*
X64692857Y-58084523D01*
X64883333Y-58179761D01*
X65169047Y-58179761D01*
X65359523Y-58084523D01*
X65454761Y-57989285D01*
X66121428Y-56846428D02*
X66883333Y-56846428D01*
X66407142Y-56179761D02*
X66407142Y-57894047D01*
X66502380Y-58084523D01*
X66692857Y-58179761D01*
X66883333Y-58179761D01*
X71372619Y-44211904D02*
X73277380Y-44211904D01*
X71753571Y-44783333D02*
X72896428Y-44783333D01*
X72325000Y-43354761D02*
X72325000Y-44211904D01*
X72515476Y-45354761D02*
X72134523Y-45354761D01*
X71628571Y-39217857D02*
X73152380Y-39217857D01*
X72390476Y-39979761D02*
X72390476Y-38455952D01*
X75057142Y-37979761D02*
X74104761Y-37979761D01*
X74009523Y-38932142D01*
X74104761Y-38836904D01*
X74295238Y-38741666D01*
X74771428Y-38741666D01*
X74961904Y-38836904D01*
X75057142Y-38932142D01*
X75152380Y-39122619D01*
X75152380Y-39598809D01*
X75057142Y-39789285D01*
X74961904Y-39884523D01*
X74771428Y-39979761D01*
X74295238Y-39979761D01*
X74104761Y-39884523D01*
X74009523Y-39789285D01*
X75723809Y-37979761D02*
X76390476Y-39979761D01*
X77057142Y-37979761D01*
D13*
X96570238Y-57129761D02*
X96713095Y-57177380D01*
X96951190Y-57177380D01*
X97046428Y-57129761D01*
X97094047Y-57082142D01*
X97141666Y-56986904D01*
X97141666Y-56891666D01*
X97094047Y-56796428D01*
X97046428Y-56748809D01*
X96951190Y-56701190D01*
X96760714Y-56653571D01*
X96665476Y-56605952D01*
X96617857Y-56558333D01*
X96570238Y-56463095D01*
X96570238Y-56367857D01*
X96617857Y-56272619D01*
X96665476Y-56225000D01*
X96760714Y-56177380D01*
X96998809Y-56177380D01*
X97141666Y-56225000D01*
X97760714Y-56177380D02*
X97951190Y-56177380D01*
X98046428Y-56225000D01*
X98141666Y-56320238D01*
X98189285Y-56510714D01*
X98189285Y-56844047D01*
X98141666Y-57034523D01*
X98046428Y-57129761D01*
X97951190Y-57177380D01*
X97760714Y-57177380D01*
X97665476Y-57129761D01*
X97570238Y-57034523D01*
X97522619Y-56844047D01*
X97522619Y-56510714D01*
X97570238Y-56320238D01*
X97665476Y-56225000D01*
X97760714Y-56177380D01*
X98617857Y-56796428D02*
X99379761Y-56796428D01*
X99998809Y-56605952D02*
X99903571Y-56558333D01*
X99855952Y-56510714D01*
X99808333Y-56415476D01*
X99808333Y-56367857D01*
X99855952Y-56272619D01*
X99903571Y-56225000D01*
X99998809Y-56177380D01*
X100189285Y-56177380D01*
X100284523Y-56225000D01*
X100332142Y-56272619D01*
X100379761Y-56367857D01*
X100379761Y-56415476D01*
X100332142Y-56510714D01*
X100284523Y-56558333D01*
X100189285Y-56605952D01*
X99998809Y-56605952D01*
X99903571Y-56653571D01*
X99855952Y-56701190D01*
X99808333Y-56796428D01*
X99808333Y-56986904D01*
X99855952Y-57082142D01*
X99903571Y-57129761D01*
X99998809Y-57177380D01*
X100189285Y-57177380D01*
X100284523Y-57129761D01*
X100332142Y-57082142D01*
X100379761Y-56986904D01*
X100379761Y-56796428D01*
X100332142Y-56701190D01*
X100284523Y-56653571D01*
X100189285Y-56605952D01*
X99449523Y-48974761D02*
X99592380Y-49022380D01*
X99830476Y-49022380D01*
X99925714Y-48974761D01*
X99973333Y-48927142D01*
X100020952Y-48831904D01*
X100020952Y-48736666D01*
X99973333Y-48641428D01*
X99925714Y-48593809D01*
X99830476Y-48546190D01*
X99640000Y-48498571D01*
X99544761Y-48450952D01*
X99497142Y-48403333D01*
X99449523Y-48308095D01*
X99449523Y-48212857D01*
X99497142Y-48117619D01*
X99544761Y-48070000D01*
X99640000Y-48022380D01*
X99878095Y-48022380D01*
X100020952Y-48070000D01*
X100640000Y-48022380D02*
X100830476Y-48022380D01*
X100925714Y-48070000D01*
X101020952Y-48165238D01*
X101068571Y-48355714D01*
X101068571Y-48689047D01*
X101020952Y-48879523D01*
X100925714Y-48974761D01*
X100830476Y-49022380D01*
X100640000Y-49022380D01*
X100544761Y-48974761D01*
X100449523Y-48879523D01*
X100401904Y-48689047D01*
X100401904Y-48355714D01*
X100449523Y-48165238D01*
X100544761Y-48070000D01*
X100640000Y-48022380D01*
X101354285Y-48022380D02*
X101925714Y-48022380D01*
X101640000Y-49022380D02*
X101640000Y-48022380D01*
D14*
X75618095Y-74820952D02*
X74427619Y-74820952D01*
X74427619Y-72320952D01*
X76094285Y-72320952D02*
X77522857Y-72320952D01*
X76808571Y-74820952D02*
X76808571Y-72320952D01*
X79784761Y-74582857D02*
X79665714Y-74701904D01*
X79308571Y-74820952D01*
X79070476Y-74820952D01*
X78713333Y-74701904D01*
X78475238Y-74463809D01*
X78356190Y-74225714D01*
X78237142Y-73749523D01*
X78237142Y-73392380D01*
X78356190Y-72916190D01*
X78475238Y-72678095D01*
X78713333Y-72440000D01*
X79070476Y-72320952D01*
X79308571Y-72320952D01*
X79665714Y-72440000D01*
X79784761Y-72559047D01*
X81927619Y-72320952D02*
X81451428Y-72320952D01*
X81213333Y-72440000D01*
X81094285Y-72559047D01*
X80856190Y-72916190D01*
X80737142Y-73392380D01*
X80737142Y-74344761D01*
X80856190Y-74582857D01*
X80975238Y-74701904D01*
X81213333Y-74820952D01*
X81689523Y-74820952D01*
X81927619Y-74701904D01*
X82046666Y-74582857D01*
X82165714Y-74344761D01*
X82165714Y-73749523D01*
X82046666Y-73511428D01*
X81927619Y-73392380D01*
X81689523Y-73273333D01*
X81213333Y-73273333D01*
X80975238Y-73392380D01*
X80856190Y-73511428D01*
X80737142Y-73749523D01*
X83118095Y-72559047D02*
X83237142Y-72440000D01*
X83475238Y-72320952D01*
X84070476Y-72320952D01*
X84308571Y-72440000D01*
X84427619Y-72559047D01*
X84546666Y-72797142D01*
X84546666Y-73035238D01*
X84427619Y-73392380D01*
X82999047Y-74820952D01*
X84546666Y-74820952D01*
X86689523Y-72320952D02*
X86213333Y-72320952D01*
X85975238Y-72440000D01*
X85856190Y-72559047D01*
X85618095Y-72916190D01*
X85499047Y-73392380D01*
X85499047Y-74344761D01*
X85618095Y-74582857D01*
X85737142Y-74701904D01*
X85975238Y-74820952D01*
X86451428Y-74820952D01*
X86689523Y-74701904D01*
X86808571Y-74582857D01*
X86927619Y-74344761D01*
X86927619Y-73749523D01*
X86808571Y-73511428D01*
X86689523Y-73392380D01*
X86451428Y-73273333D01*
X85975238Y-73273333D01*
X85737142Y-73392380D01*
X85618095Y-73511428D01*
X85499047Y-73749523D01*
X88356190Y-73392380D02*
X88118095Y-73273333D01*
X87999047Y-73154285D01*
X87880000Y-72916190D01*
X87880000Y-72797142D01*
X87999047Y-72559047D01*
X88118095Y-72440000D01*
X88356190Y-72320952D01*
X88832380Y-72320952D01*
X89070476Y-72440000D01*
X89189523Y-72559047D01*
X89308571Y-72797142D01*
X89308571Y-72916190D01*
X89189523Y-73154285D01*
X89070476Y-73273333D01*
X88832380Y-73392380D01*
X88356190Y-73392380D01*
X88118095Y-73511428D01*
X87999047Y-73630476D01*
X87880000Y-73868571D01*
X87880000Y-74344761D01*
X87999047Y-74582857D01*
X88118095Y-74701904D01*
X88356190Y-74820952D01*
X88832380Y-74820952D01*
X89070476Y-74701904D01*
X89189523Y-74582857D01*
X89308571Y-74344761D01*
X89308571Y-73868571D01*
X89189523Y-73630476D01*
X89070476Y-73511428D01*
X88832380Y-73392380D01*
X91927619Y-72320952D02*
X93356190Y-72320952D01*
X92641904Y-74820952D02*
X92641904Y-72320952D01*
X94189523Y-74820952D02*
X94189523Y-72320952D01*
X95260952Y-74106666D02*
X96451428Y-74106666D01*
X95022857Y-74820952D02*
X95856190Y-72320952D01*
X96689523Y-74820952D01*
D12*
X82171267Y-64490000D02*
X81828733Y-64490000D01*
X82171267Y-65510000D02*
X81828733Y-65510000D01*
X77171267Y-64490000D02*
X76828733Y-64490000D01*
X77171267Y-65510000D02*
X76828733Y-65510000D01*
X71200000Y-38900000D02*
X71200000Y-39500000D01*
X70600000Y-39200000D02*
X71200000Y-38900000D01*
X71200000Y-39500000D02*
X70600000Y-39200000D01*
X63800000Y-36550000D02*
X63800000Y-46930000D01*
X69910000Y-40250000D02*
X69910000Y-43230000D01*
X69910000Y-46930000D02*
X69910000Y-45330000D01*
X69910000Y-36550000D02*
X69910000Y-38150000D01*
X60490000Y-46930000D02*
X69910000Y-46930000D01*
X60490000Y-36550000D02*
X60490000Y-46930000D01*
X69910000Y-36550000D02*
X60490000Y-36550000D01*
X102865000Y-58465000D02*
X102865000Y-62350000D01*
X105135000Y-58465000D02*
X102865000Y-58465000D01*
X105135000Y-62350000D02*
X105135000Y-58465000D01*
X106635000Y-47285000D02*
X106635000Y-43400000D01*
X104365000Y-47285000D02*
X106635000Y-47285000D01*
X104365000Y-43400000D02*
X104365000Y-47285000D01*
X99390000Y-44100000D02*
X99390000Y-46550000D01*
X102610000Y-45900000D02*
X102610000Y-44100000D01*
X89510000Y-61171267D02*
X89510000Y-60828733D01*
X88490000Y-61171267D02*
X88490000Y-60828733D01*
X91510000Y-61171267D02*
X91510000Y-60828733D01*
X90490000Y-61171267D02*
X90490000Y-60828733D01*
X93740000Y-44678733D02*
X93740000Y-45021267D01*
X94760000Y-44678733D02*
X94760000Y-45021267D01*
X95740000Y-44678733D02*
X95740000Y-45021267D01*
X96760000Y-44678733D02*
X96760000Y-45021267D01*
X98000000Y-64060000D02*
X101450000Y-64060000D01*
X98000000Y-64060000D02*
X96050000Y-64060000D01*
X98000000Y-58940000D02*
X99950000Y-58940000D01*
X98000000Y-58940000D02*
X96050000Y-58940000D01*
X82750000Y-37840000D02*
X80300000Y-37840000D01*
X80950000Y-41060000D02*
X82750000Y-41060000D01*
X91050000Y-63700000D02*
G75*
G03X91050000Y-63700000I-950000J0D01*
G01*
X103950000Y-38500000D02*
G75*
G03X103950000Y-38500000I-950000J0D01*
G01*
X86800000Y-37500000D02*
X88200000Y-37500000D01*
X88900000Y-38200000D02*
X88900000Y-38800000D01*
X88200000Y-39500000D02*
X86800000Y-39500000D01*
X86100000Y-38800000D02*
X86100000Y-38200000D01*
X86100000Y-38200000D02*
G75*
G02X86800000Y-37500000I700000J0D01*
G01*
X86800000Y-39500000D02*
G75*
G02X86100000Y-38800000I0J700000D01*
G01*
X88900000Y-38800000D02*
G75*
G02X88200000Y-39500000I-700000J0D01*
G01*
X88200000Y-37500000D02*
G75*
G02X88900000Y-38200000I0J-700000D01*
G01*
X86800000Y-33500000D02*
X88200000Y-33500000D01*
X88900000Y-34200000D02*
X88900000Y-34800000D01*
X88200000Y-35500000D02*
X86800000Y-35500000D01*
X86100000Y-34800000D02*
X86100000Y-34200000D01*
X86100000Y-34200000D02*
G75*
G02X86800000Y-33500000I700000J0D01*
G01*
X86800000Y-35500000D02*
G75*
G02X86100000Y-34800000I0J700000D01*
G01*
X88900000Y-34800000D02*
G75*
G02X88200000Y-35500000I-700000J0D01*
G01*
X88200000Y-33500000D02*
G75*
G02X88900000Y-34200000I0J-700000D01*
G01*
X67710000Y-65000000D02*
X68210000Y-65250000D01*
X68210000Y-65250000D02*
X68210000Y-64750000D01*
X68210000Y-64750000D02*
X67710000Y-65000000D01*
D13*
X81833333Y-66882380D02*
X81357142Y-66882380D01*
X81357142Y-65882380D01*
X82690476Y-66882380D02*
X82119047Y-66882380D01*
X82404761Y-66882380D02*
X82404761Y-65882380D01*
X82309523Y-66025238D01*
X82214285Y-66120476D01*
X82119047Y-66168095D01*
X76833333Y-66882380D02*
X76357142Y-66882380D01*
X76357142Y-65882380D01*
X77119047Y-65977619D02*
X77166666Y-65930000D01*
X77261904Y-65882380D01*
X77500000Y-65882380D01*
X77595238Y-65930000D01*
X77642857Y-65977619D01*
X77690476Y-66072857D01*
X77690476Y-66168095D01*
X77642857Y-66310952D01*
X77071428Y-66882380D01*
X77690476Y-66882380D01*
X85833333Y-64282380D02*
X85500000Y-63806190D01*
X85261904Y-64282380D02*
X85261904Y-63282380D01*
X85642857Y-63282380D01*
X85738095Y-63330000D01*
X85785714Y-63377619D01*
X85833333Y-63472857D01*
X85833333Y-63615714D01*
X85785714Y-63710952D01*
X85738095Y-63758571D01*
X85642857Y-63806190D01*
X85261904Y-63806190D01*
X86214285Y-63377619D02*
X86261904Y-63330000D01*
X86357142Y-63282380D01*
X86595238Y-63282380D01*
X86690476Y-63330000D01*
X86738095Y-63377619D01*
X86785714Y-63472857D01*
X86785714Y-63568095D01*
X86738095Y-63710952D01*
X86166666Y-64282380D01*
X86785714Y-64282380D01*
X79333333Y-64122380D02*
X79000000Y-63646190D01*
X78761904Y-64122380D02*
X78761904Y-63122380D01*
X79142857Y-63122380D01*
X79238095Y-63170000D01*
X79285714Y-63217619D01*
X79333333Y-63312857D01*
X79333333Y-63455714D01*
X79285714Y-63550952D01*
X79238095Y-63598571D01*
X79142857Y-63646190D01*
X78761904Y-63646190D01*
X80285714Y-64122380D02*
X79714285Y-64122380D01*
X80000000Y-64122380D02*
X80000000Y-63122380D01*
X79904761Y-63265238D01*
X79809523Y-63360476D01*
X79714285Y-63408095D01*
X72833333Y-64282380D02*
X72500000Y-63806190D01*
X72261904Y-64282380D02*
X72261904Y-63282380D01*
X72642857Y-63282380D01*
X72738095Y-63330000D01*
X72785714Y-63377619D01*
X72833333Y-63472857D01*
X72833333Y-63615714D01*
X72785714Y-63710952D01*
X72738095Y-63758571D01*
X72642857Y-63806190D01*
X72261904Y-63806190D01*
X73166666Y-63282380D02*
X73785714Y-63282380D01*
X73452380Y-63663333D01*
X73595238Y-63663333D01*
X73690476Y-63710952D01*
X73738095Y-63758571D01*
X73785714Y-63853809D01*
X73785714Y-64091904D01*
X73738095Y-64187142D01*
X73690476Y-64234761D01*
X73595238Y-64282380D01*
X73309523Y-64282380D01*
X73214285Y-64234761D01*
X73166666Y-64187142D01*
X78952380Y-70166666D02*
X78476190Y-70500000D01*
X78952380Y-70738095D02*
X77952380Y-70738095D01*
X77952380Y-70357142D01*
X78000000Y-70261904D01*
X78047619Y-70214285D01*
X78142857Y-70166666D01*
X78285714Y-70166666D01*
X78380952Y-70214285D01*
X78428571Y-70261904D01*
X78476190Y-70357142D01*
X78476190Y-70738095D01*
X78285714Y-69309523D02*
X78952380Y-69309523D01*
X77904761Y-69547619D02*
X78619047Y-69785714D01*
X78619047Y-69166666D01*
X81027142Y-67666666D02*
X81074761Y-67714285D01*
X81122380Y-67857142D01*
X81122380Y-67952380D01*
X81074761Y-68095238D01*
X80979523Y-68190476D01*
X80884285Y-68238095D01*
X80693809Y-68285714D01*
X80550952Y-68285714D01*
X80360476Y-68238095D01*
X80265238Y-68190476D01*
X80170000Y-68095238D01*
X80122380Y-67952380D01*
X80122380Y-67857142D01*
X80170000Y-67714285D01*
X80217619Y-67666666D01*
X80122380Y-66761904D02*
X80122380Y-67238095D01*
X80598571Y-67285714D01*
X80550952Y-67238095D01*
X80503333Y-67142857D01*
X80503333Y-66904761D01*
X80550952Y-66809523D01*
X80598571Y-66761904D01*
X80693809Y-66714285D01*
X80931904Y-66714285D01*
X81027142Y-66761904D01*
X81074761Y-66809523D01*
X81122380Y-66904761D01*
X81122380Y-67142857D01*
X81074761Y-67238095D01*
X81027142Y-67285714D01*
X99418095Y-40752380D02*
X99418095Y-41561904D01*
X99465714Y-41657142D01*
X99513333Y-41704761D01*
X99608571Y-41752380D01*
X99799047Y-41752380D01*
X99894285Y-41704761D01*
X99941904Y-41657142D01*
X99989523Y-41561904D01*
X99989523Y-40752380D01*
X100418095Y-40847619D02*
X100465714Y-40800000D01*
X100560952Y-40752380D01*
X100799047Y-40752380D01*
X100894285Y-40800000D01*
X100941904Y-40847619D01*
X100989523Y-40942857D01*
X100989523Y-41038095D01*
X100941904Y-41180952D01*
X100370476Y-41752380D01*
X100989523Y-41752380D01*
X88082142Y-61141666D02*
X88129761Y-61189285D01*
X88177380Y-61332142D01*
X88177380Y-61427380D01*
X88129761Y-61570238D01*
X88034523Y-61665476D01*
X87939285Y-61713095D01*
X87748809Y-61760714D01*
X87605952Y-61760714D01*
X87415476Y-61713095D01*
X87320238Y-61665476D01*
X87225000Y-61570238D01*
X87177380Y-61427380D01*
X87177380Y-61332142D01*
X87225000Y-61189285D01*
X87272619Y-61141666D01*
X87605952Y-60570238D02*
X87558333Y-60665476D01*
X87510714Y-60713095D01*
X87415476Y-60760714D01*
X87367857Y-60760714D01*
X87272619Y-60713095D01*
X87225000Y-60665476D01*
X87177380Y-60570238D01*
X87177380Y-60379761D01*
X87225000Y-60284523D01*
X87272619Y-60236904D01*
X87367857Y-60189285D01*
X87415476Y-60189285D01*
X87510714Y-60236904D01*
X87558333Y-60284523D01*
X87605952Y-60379761D01*
X87605952Y-60570238D01*
X87653571Y-60665476D01*
X87701190Y-60713095D01*
X87796428Y-60760714D01*
X87986904Y-60760714D01*
X88082142Y-60713095D01*
X88129761Y-60665476D01*
X88177380Y-60570238D01*
X88177380Y-60379761D01*
X88129761Y-60284523D01*
X88082142Y-60236904D01*
X87986904Y-60189285D01*
X87796428Y-60189285D01*
X87701190Y-60236904D01*
X87653571Y-60284523D01*
X87605952Y-60379761D01*
X92207142Y-63666666D02*
X92254761Y-63714285D01*
X92302380Y-63857142D01*
X92302380Y-63952380D01*
X92254761Y-64095238D01*
X92159523Y-64190476D01*
X92064285Y-64238095D01*
X91873809Y-64285714D01*
X91730952Y-64285714D01*
X91540476Y-64238095D01*
X91445238Y-64190476D01*
X91350000Y-64095238D01*
X91302380Y-63952380D01*
X91302380Y-63857142D01*
X91350000Y-63714285D01*
X91397619Y-63666666D01*
X91302380Y-63333333D02*
X91302380Y-62666666D01*
X92302380Y-63095238D01*
X80833333Y-43857142D02*
X80785714Y-43904761D01*
X80642857Y-43952380D01*
X80547619Y-43952380D01*
X80404761Y-43904761D01*
X80309523Y-43809523D01*
X80261904Y-43714285D01*
X80214285Y-43523809D01*
X80214285Y-43380952D01*
X80261904Y-43190476D01*
X80309523Y-43095238D01*
X80404761Y-43000000D01*
X80547619Y-42952380D01*
X80642857Y-42952380D01*
X80785714Y-43000000D01*
X80833333Y-43047619D01*
X81690476Y-42952380D02*
X81500000Y-42952380D01*
X81404761Y-43000000D01*
X81357142Y-43047619D01*
X81261904Y-43190476D01*
X81214285Y-43380952D01*
X81214285Y-43761904D01*
X81261904Y-43857142D01*
X81309523Y-43904761D01*
X81404761Y-43952380D01*
X81595238Y-43952380D01*
X81690476Y-43904761D01*
X81738095Y-43857142D01*
X81785714Y-43761904D01*
X81785714Y-43523809D01*
X81738095Y-43428571D01*
X81690476Y-43380952D01*
X81595238Y-43333333D01*
X81404761Y-43333333D01*
X81309523Y-43380952D01*
X81261904Y-43428571D01*
X81214285Y-43523809D01*
X94697142Y-42496666D02*
X94744761Y-42544285D01*
X94792380Y-42687142D01*
X94792380Y-42782380D01*
X94744761Y-42925238D01*
X94649523Y-43020476D01*
X94554285Y-43068095D01*
X94363809Y-43115714D01*
X94220952Y-43115714D01*
X94030476Y-43068095D01*
X93935238Y-43020476D01*
X93840000Y-42925238D01*
X93792380Y-42782380D01*
X93792380Y-42687142D01*
X93840000Y-42544285D01*
X93887619Y-42496666D01*
X94125714Y-41639523D02*
X94792380Y-41639523D01*
X93744761Y-41877619D02*
X94459047Y-42115714D01*
X94459047Y-41496666D01*
X96607142Y-42516666D02*
X96654761Y-42564285D01*
X96702380Y-42707142D01*
X96702380Y-42802380D01*
X96654761Y-42945238D01*
X96559523Y-43040476D01*
X96464285Y-43088095D01*
X96273809Y-43135714D01*
X96130952Y-43135714D01*
X95940476Y-43088095D01*
X95845238Y-43040476D01*
X95750000Y-42945238D01*
X95702380Y-42802380D01*
X95702380Y-42707142D01*
X95750000Y-42564285D01*
X95797619Y-42516666D01*
X95702380Y-42183333D02*
X95702380Y-41564285D01*
X96083333Y-41897619D01*
X96083333Y-41754761D01*
X96130952Y-41659523D01*
X96178571Y-41611904D01*
X96273809Y-41564285D01*
X96511904Y-41564285D01*
X96607142Y-41611904D01*
X96654761Y-41659523D01*
X96702380Y-41754761D01*
X96702380Y-42040476D01*
X96654761Y-42135714D01*
X96607142Y-42183333D01*
X93732142Y-63691666D02*
X93779761Y-63739285D01*
X93827380Y-63882142D01*
X93827380Y-63977380D01*
X93779761Y-64120238D01*
X93684523Y-64215476D01*
X93589285Y-64263095D01*
X93398809Y-64310714D01*
X93255952Y-64310714D01*
X93065476Y-64263095D01*
X92970238Y-64215476D01*
X92875000Y-64120238D01*
X92827380Y-63977380D01*
X92827380Y-63882142D01*
X92875000Y-63739285D01*
X92922619Y-63691666D01*
X92922619Y-63310714D02*
X92875000Y-63263095D01*
X92827380Y-63167857D01*
X92827380Y-62929761D01*
X92875000Y-62834523D01*
X92922619Y-62786904D01*
X93017857Y-62739285D01*
X93113095Y-62739285D01*
X93255952Y-62786904D01*
X93827380Y-63358333D01*
X93827380Y-62739285D01*
X98397142Y-42516666D02*
X98444761Y-42564285D01*
X98492380Y-42707142D01*
X98492380Y-42802380D01*
X98444761Y-42945238D01*
X98349523Y-43040476D01*
X98254285Y-43088095D01*
X98063809Y-43135714D01*
X97920952Y-43135714D01*
X97730476Y-43088095D01*
X97635238Y-43040476D01*
X97540000Y-42945238D01*
X97492380Y-42802380D01*
X97492380Y-42707142D01*
X97540000Y-42564285D01*
X97587619Y-42516666D01*
X98492380Y-41564285D02*
X98492380Y-42135714D01*
X98492380Y-41850000D02*
X97492380Y-41850000D01*
X97635238Y-41945238D01*
X97730476Y-42040476D01*
X97778095Y-42135714D01*
X97238095Y-64352380D02*
X97238095Y-65161904D01*
X97285714Y-65257142D01*
X97333333Y-65304761D01*
X97428571Y-65352380D01*
X97619047Y-65352380D01*
X97714285Y-65304761D01*
X97761904Y-65257142D01*
X97809523Y-65161904D01*
X97809523Y-64352380D01*
X98190476Y-64352380D02*
X98809523Y-64352380D01*
X98476190Y-64733333D01*
X98619047Y-64733333D01*
X98714285Y-64780952D01*
X98761904Y-64828571D01*
X98809523Y-64923809D01*
X98809523Y-65161904D01*
X98761904Y-65257142D01*
X98714285Y-65304761D01*
X98619047Y-65352380D01*
X98333333Y-65352380D01*
X98238095Y-65304761D01*
X98190476Y-65257142D01*
X81088095Y-36002380D02*
X81088095Y-36811904D01*
X81135714Y-36907142D01*
X81183333Y-36954761D01*
X81278571Y-37002380D01*
X81469047Y-37002380D01*
X81564285Y-36954761D01*
X81611904Y-36907142D01*
X81659523Y-36811904D01*
X81659523Y-36002380D01*
X82659523Y-37002380D02*
X82088095Y-37002380D01*
X82373809Y-37002380D02*
X82373809Y-36002380D01*
X82278571Y-36145238D01*
X82183333Y-36240476D01*
X82088095Y-36288095D01*
M02*
