M48
; DRILL file {KiCad 5.1.2-1.fc30} date Fri Jun  7 11:56:00 2019
; FORMAT={-:-/ absolute / inch / decimal}
; #@! TF.CreationDate,2019-06-07T11:56:00+09:00
; #@! TF.GenerationSoftware,Kicad,Pcbnew,5.1.2-1.fc30
; #@! TF.FileFunction,Plated,1,2,PTH
FMAT,2
INCH
T1C0.0157
T2C0.0315
T3C0.0472
%
G90
G05
T1
X3.8307Y-2.3996
X3.8937Y-1.6693
X3.9331Y-1.6673
X4.0132Y-2.4463
X4.025Y-2.3963
X4.0335Y-1.8957
X4.0492Y-1.815
X4.122Y-1.9075
T2
X2.5394Y-1.752
X2.6969Y-1.8898
X2.7362Y-2.3228
X2.7362Y-2.4016
X2.7362Y-2.4803
X2.7362Y-2.6378
X2.7362Y-2.7165
X2.9114Y-1.9665
X2.9331Y-2.4606
X2.9705Y-2.0276
X3.0315Y-2.0886
X3.0512Y-2.7362
X3.0709Y-1.4764
X3.0709Y-1.5551
X3.0787Y-1.876
X3.124Y-1.7323
X3.1299Y-2.3819
X3.1634Y-1.876
X3.1634Y-1.9724
X3.2067Y-1.7323
X3.2087Y-2.7362
X3.3268Y-1.6732
X3.3268Y-2.4606
X3.3406Y-1.439
X3.498Y-2.6703
X3.5039Y-1.6732
X3.5039Y-2.2835
X3.5827Y-2.2835
X3.6398Y-1.8012
X3.6614Y-2.3228
X3.747Y-2.6713
X3.7559Y-2.2776
X3.7598Y-1.4961
X3.7598Y-1.5748
X3.7913Y-1.8839
X3.8681Y-1.8287
X3.9951Y-2.6713
X4.0177Y-2.0256
X4.2244Y-2.0256
X4.2264Y-1.4961
X4.2313Y-2.6713
T3
X2.7008Y-1.5433
X2.7008Y-1.7433
T0
M30
